<svg width="78" height="41" viewBox="0 0 78 41" fill="none" xmlns="http://www.w3.org/2000/svg">
<g id="Amex">
<g id="American Express">
<path id="path3046" d="M7.53126 9.33252L4 17.5468H6.29903L6.95059 15.902H10.7384L11.3866 17.5468H13.7363L10.2084 9.33252H7.53126ZM8.83776 11.2442L9.99234 14.1186H7.6798L8.83776 11.2442Z" fill="white"/>
<path id="path3048" d="M13.9807 17.5468V9.33252L17.2478 9.34466L19.148 14.6407L21.0027 9.33252H24.2436V17.5468H22.1911V11.4942L20.0153 17.5468H18.2152L16.0333 11.4942V17.5468H13.9807Z" fill="white"/>
<path id="path3050" d="M25.6536 17.5468V9.33252H32.3515V11.1699H27.7278V12.575H32.2434V14.3043H27.7278V15.7635H32.3515V17.5468H25.6536Z" fill="white"/>
<path id="path3052" d="M33.5321 9.33252V17.5468H35.5847V14.6286H36.4489L38.91 17.5468H41.4184L38.7176 14.5205C39.826 14.4269 40.9694 13.4751 40.9694 11.9975C40.9694 10.2689 39.6133 9.33252 38.0998 9.33252H33.5321ZM35.5847 11.1699H37.931C38.4938 11.1699 38.9033 11.6104 38.9033 12.0346C38.9033 12.5803 38.3728 12.8993 37.9614 12.8993H35.5847V11.1699Z" fill="white"/>
<path id="path3054" d="M43.8998 17.5468H41.804V9.33252H43.8998V17.5468Z" fill="white"/>
<path id="path3056" d="M48.8675 17.5468H48.4151C46.2263 17.5468 44.8973 15.8216 44.8973 13.4735C44.8973 11.0673 46.2114 9.33252 48.9755 9.33252H51.2442V11.278H48.8926C47.7705 11.278 46.9769 12.1541 46.9769 13.4937C46.9769 15.0845 47.8843 15.7527 49.1916 15.7527H49.7317L48.8675 17.5468Z" fill="white"/>
<path id="path3058" d="M53.3334 9.33252L49.8021 17.5468H52.1012L52.7527 15.902H56.5405L57.1887 17.5468H59.5384L56.0105 9.33252H53.3334ZM54.6399 11.2442L55.7945 14.1186H53.4819L54.6399 11.2442Z" fill="white"/>
<path id="path3060" d="M59.7831 17.5468V9.33252H62.3927L65.7248 14.4935V9.33252H67.7774V17.5468H65.2521L61.8357 12.2508V17.5468H59.7831Z" fill="white"/>
<path id="path3062" d="M18.9541 31.9194V23.7051H25.652V25.5425H21.0283V26.9476H25.544V28.6769H21.0283V30.136H25.652V31.9194H18.9541Z" fill="white"/>
<path id="path3064" d="M51.7676 31.9194V23.7051H58.4655V25.5425H53.8418V26.9476H58.3359V28.6769H53.8418V30.136H58.4655V31.9194H51.7676Z" fill="white"/>
<path id="path3066" d="M25.902 31.9194L29.1632 27.8629L25.8243 23.7051H28.4103L30.3988 26.2754L32.394 23.7051H34.8787L31.5837 27.8122L34.8509 31.9194H32.2653L30.3346 29.3896L28.4508 31.9194H25.902Z" fill="white"/>
<path id="path3068" d="M35.1046 23.7051V31.9194H37.2112V29.3254H39.3718C41.2 29.3254 42.5858 28.355 42.5858 26.468C42.5858 24.9047 41.4989 23.7051 39.6385 23.7051H35.1046ZM37.2112 25.5628H39.4866C40.0772 25.5628 40.4994 25.9249 40.4994 26.5085C40.4994 27.0567 40.0794 27.4542 39.4799 27.4542H37.2112V25.5628Z" fill="white"/>
<path id="path3072" d="M43.4788 23.7051V31.9194H45.5313V29.0012H46.3956L48.8567 31.9194H51.365L48.6642 28.8931C49.7727 28.7995 50.916 27.8477 50.916 26.37C50.916 24.6414 49.5599 23.7051 48.0464 23.7051H43.4788ZM45.5313 25.5425H47.8776C48.4405 25.5425 48.8499 25.983 48.8499 26.4072C48.8499 26.9529 48.3194 27.2718 47.908 27.2718H45.5313V25.5425Z" fill="white"/>
<path id="path3074" d="M59.4111 31.9194V30.136H63.519C64.1268 30.136 64.39 29.8074 64.39 29.447C64.39 29.1017 64.1277 28.7526 63.519 28.7526H61.6627C60.0491 28.7526 59.1505 27.769 59.1505 26.2923C59.1505 24.9752 59.9734 23.7051 62.3712 23.7051H66.3683L65.5041 25.5533H62.0471C61.3863 25.5533 61.1828 25.9002 61.1828 26.2315C61.1828 26.5721 61.4342 26.9476 61.9391 26.9476H63.8836C65.6823 26.9476 66.4629 27.9684 66.4629 29.3051C66.4629 30.7423 65.5931 31.9194 63.7857 31.9194H59.4111Z" fill="white"/>
<path id="path3076" d="M66.9484 31.9194V30.136H71.0562C71.6641 30.136 71.9272 29.8074 71.9272 29.447C71.9272 29.1017 71.6649 28.7526 71.0562 28.7526H69.1999C67.5864 28.7526 66.6877 27.769 66.6877 26.2923C66.6877 24.9752 67.5107 23.7051 69.9084 23.7051H73.9056L73.0413 25.5533H69.5843C68.9235 25.5533 68.7201 25.9002 68.7201 26.2315C68.7201 26.5721 68.9715 26.9476 69.4763 26.9476H71.4208C73.2196 26.9476 74.0001 27.9684 74.0001 29.3051C74.0001 30.7423 73.1303 31.9194 71.3229 31.9194H66.9484Z" fill="white"/>
</g>
</g>
</svg>
