<svg width="78" height="41" viewBox="0 0 78 41" fill="none" xmlns="http://www.w3.org/2000/svg">
<g clip-path="url(#clip0_2222_478)">
<line x1="17.75" y1="5.33252" x2="17.75" y2="35.0716" stroke="white" stroke-width="1.5"/>
<line x1="25" y1="5.33252" x2="25" y2="24.3325" stroke="white" stroke-width="2"/>
<line x1="27.75" y1="5.33252" x2="27.75" y2="24.3325" stroke="white" stroke-width="1.5"/>
<line x1="20.75" y1="5.33252" x2="20.75" y2="24.3325" stroke="white" stroke-width="1.5"/>
<line x1="30.75" y1="5.33252" x2="30.75" y2="24.3325" stroke="white" stroke-width="1.5"/>
<line x1="38.75" y1="5.33252" x2="38.75" y2="24.3325" stroke="white" stroke-width="1.5"/>
<line x1="42.75" y1="5.33252" x2="42.75" y2="24.3325" stroke="white" stroke-width="1.5"/>
<line x1="47.75" y1="5.33252" x2="47.75" y2="24.3325" stroke="white" stroke-width="1.5"/>
<line x1="58.75" y1="5.33252" x2="58.75" y2="24.3325" stroke="white" stroke-width="1.5"/>
<line x1="36" y1="5.33252" x2="36" y2="24.3325" stroke="white" stroke-width="2"/>
<line x1="51" y1="5.33252" x2="51" y2="24.3325" stroke="white" stroke-width="2"/>
<line x1="56" y1="5.33252" x2="56" y2="24.3325" stroke="white" stroke-width="2"/>
<line x1="61.75" y1="5.33252" x2="61.75" y2="35.0716" stroke="white" stroke-width="1.5"/>
<path d="M21.3047 27.1938H23.5264C24.5387 27.1938 25.2728 27.3387 25.7285 27.6284C26.1875 27.9149 26.417 28.3722 26.417 29.0005C26.417 29.4269 26.3161 29.7769 26.1143 30.0503C25.9157 30.3237 25.6504 30.4881 25.3184 30.5435V30.5923C25.7708 30.6932 26.0964 30.882 26.2949 31.1587C26.4967 31.4354 26.5977 31.8032 26.5977 32.2622C26.5977 32.9132 26.3617 33.4211 25.8896 33.7856C25.4209 34.1502 24.7829 34.3325 23.9756 34.3325H21.3047V27.1938ZM22.8184 30.021H23.6973C24.1074 30.021 24.4036 29.9575 24.5859 29.8306C24.7715 29.7036 24.8643 29.4937 24.8643 29.2007C24.8643 28.9272 24.7633 28.7319 24.5615 28.6147C24.363 28.4943 24.0472 28.4341 23.6143 28.4341H22.8184V30.021ZM22.8184 31.2222V33.0825H23.8047C24.2214 33.0825 24.529 33.0028 24.7275 32.8433C24.9261 32.6838 25.0254 32.4396 25.0254 32.1108C25.0254 31.5184 24.6022 31.2222 23.7559 31.2222H22.8184ZM34.4029 30.7534C34.4029 31.9351 34.11 32.8433 33.524 33.478C32.9381 34.1128 32.0982 34.4302 31.0045 34.4302C29.9107 34.4302 29.0709 34.1128 28.485 33.478C27.899 32.8433 27.6061 31.9318 27.6061 30.7437C27.6061 29.5555 27.899 28.6489 28.485 28.0239C29.0742 27.3957 29.9173 27.0815 31.0143 27.0815C32.1113 27.0815 32.9495 27.3973 33.5289 28.0288C34.1116 28.6603 34.4029 29.5685 34.4029 30.7534ZM29.193 30.7534C29.193 31.5509 29.3443 32.1515 29.6471 32.5552C29.9498 32.9588 30.4023 33.1606 31.0045 33.1606C32.2122 33.1606 32.816 32.3582 32.816 30.7534C32.816 29.1453 32.2154 28.3413 31.0143 28.3413C30.412 28.3413 29.9579 28.5448 29.652 28.9517C29.346 29.3553 29.193 29.9559 29.193 30.7534ZM35.7824 34.3325V27.1938H37.2961V33.0825H40.1916V34.3325H35.7824ZM45.448 34.3325H41.3367V27.1938H45.448V28.4341H42.8504V30.0015H45.2674V31.2417H42.8504V33.0825H45.448V34.3325ZM49.5961 34.3325H48.0824V28.4536H46.1439V27.1938H51.5346V28.4536H49.5961V34.3325ZM59.0127 30.7534C59.0127 31.9351 58.7197 32.8433 58.1338 33.478C57.5479 34.1128 56.708 34.4302 55.6143 34.4302C54.5205 34.4302 53.6807 34.1128 53.0947 33.478C52.5088 32.8433 52.2158 31.9318 52.2158 30.7437C52.2158 29.5555 52.5088 28.6489 53.0947 28.0239C53.6839 27.3957 54.527 27.0815 55.624 27.0815C56.721 27.0815 57.5592 27.3973 58.1387 28.0288C58.7214 28.6603 59.0127 29.5685 59.0127 30.7534ZM53.8027 30.7534C53.8027 31.5509 53.9541 32.1515 54.2568 32.5552C54.5596 32.9588 55.012 33.1606 55.6143 33.1606C56.8219 33.1606 57.4258 32.3582 57.4258 30.7534C57.4258 29.1453 56.8252 28.3413 55.624 28.3413C55.0218 28.3413 54.5677 28.5448 54.2617 28.9517C53.9557 29.3553 53.8027 29.9559 53.8027 30.7534Z" fill="white"/>
</g>
<defs>
<clipPath id="clip0_2222_478">
<rect width="78" height="40" fill="white" transform="translate(0 0.33252)"/>
</clipPath>
</defs>
</svg>
