<svg width="78" height="41" viewBox="0 0 78 41" fill="none" xmlns="http://www.w3.org/2000/svg">
<g id="Diners">
<path id="Diner" fill-rule="evenodd" clip-rule="evenodd" d="M46.3085 20.3053C46.3022 16.3496 43.8438 12.9754 40.3811 11.6383V28.9706C43.8438 27.6332 46.3022 24.2623 46.3085 20.3053ZM33.7729 28.9672V11.6399C30.3125 12.9802 27.8581 16.3496 27.8488 20.3053C27.8581 24.2592 30.3125 27.627 33.7729 28.9672ZM37.0785 5.65544C29.0365 5.65845 22.5214 12.215 22.5191 20.3053C22.5214 28.3937 29.0365 34.9487 37.0785 34.9519C45.1207 34.9487 51.6383 28.3937 51.6405 20.3053C51.6383 12.215 45.1207 5.65845 37.0785 5.65544ZM37.0428 36.3323C28.2425 36.3751 21 29.2038 21 20.4712C21 10.9291 28.2425 4.3311 37.0428 4.33252H41.167C49.8627 4.3311 57.8 10.9275 57.8 20.4712C57.8 29.2006 49.8627 36.3323 41.167 36.3323H37.0428Z" fill="white"/>
</g>
</svg>
