<svg width="78" height="41" viewBox="0 0 78 41" fill="none" xmlns="http://www.w3.org/2000/svg">
<g id="Elo">
<g id="Group">
<g id="Group_2">
<path id="Vector" d="M14.9121 13.2614C15.6968 12.9998 16.5419 12.859 17.4138 12.859C21.23 12.859 24.4158 15.5686 25.1468 19.1769L30.5593 18.0702C29.3185 11.9402 23.9061 7.33252 17.4138 7.33252C15.9249 7.33252 14.4963 7.57397 13.1616 8.02333L14.9121 13.2614Z" fill="white"/>
<path id="Vector_2" d="M8.52715 30.7935L12.1891 26.6554C10.5526 25.2067 9.52647 23.094 9.52647 20.7466C9.52647 18.3992 10.5526 16.2865 12.1891 14.8379L8.52715 10.6997C5.7505 13.1611 4 16.7493 4 20.7466C4 24.7439 5.7505 28.3388 8.52715 30.7935Z" fill="white"/>
<path id="Vector_3" d="M25.1468 22.3286C24.4158 25.9302 21.23 28.6398 17.4138 28.6398C16.5352 28.6398 15.6968 28.499 14.9121 28.2374L13.1616 33.4755C14.4963 33.9248 15.9316 34.1663 17.4205 34.1663C23.9061 34.1663 29.3185 29.5653 30.566 23.4487L25.1535 22.342L25.1468 22.3286Z" fill="white"/>
</g>
<path id="Vector_4" d="M35.2945 26.8382C35.1201 26.5498 34.8786 26.0937 34.7311 25.7517C33.8726 23.7597 33.8324 21.7007 34.5567 19.7289C35.3548 17.5625 36.8706 15.8992 38.8357 15.0542C41.3038 13.9945 44.0335 14.2024 46.4011 15.6041C47.9034 16.4693 48.9698 17.7973 49.7813 19.6819C49.8819 19.9234 49.9758 20.1782 50.063 20.3996L35.2945 26.8382ZM40.224 18.2467C38.4735 18.9978 37.5681 20.6477 37.7559 22.5726L45.1804 19.3734C43.9061 17.8711 42.2428 17.3748 40.224 18.2467ZM46.106 25.2017L45.9517 25.1011C45.5091 25.8187 44.8182 26.4022 43.9464 26.7845C42.283 27.5089 40.7472 27.3211 39.6405 26.3486L39.5399 26.5028L37.6553 29.3197C38.1248 29.6417 38.6278 29.9233 39.1509 30.138C41.2301 31.0031 43.3629 30.9629 45.4621 30.0508C46.9779 29.3935 48.1717 28.3875 48.9832 27.1199L46.1127 25.2017H46.106Z" fill="white"/>
<path id="Vector_5" d="M55.2207 10.9023V26.5763L57.6553 27.5623L56.2737 30.795L53.5843 29.6749C52.9806 29.4134 52.5715 29.0109 52.2563 28.5616C51.9612 28.0988 51.7332 27.4684 51.7332 26.6166V10.9023H55.214H55.2207Z" fill="white"/>
<g id="Group_3">
<path id="Vector_6" d="M61.5315 22.5782C61.5315 21.2435 62.1217 20.0497 63.054 19.2315L60.5523 16.4414C58.8555 17.937 57.7891 20.1302 57.7891 22.5715C57.7891 25.0128 58.8555 27.206 60.5456 28.7083L63.0406 25.9182C62.115 25.1 61.5248 23.9062 61.5315 22.5782Z" fill="white"/>
<path id="Vector_7" d="M65.9783 27.0313C65.4886 27.0313 65.0125 26.9509 64.5698 26.8033L63.376 30.3513C64.1942 30.6262 65.0661 30.7738 65.9715 30.7738C69.9286 30.7738 73.2351 27.9703 73.9997 24.2346L70.331 23.4834C69.9152 25.5089 68.1245 27.0313 65.9783 27.0246V27.0313Z" fill="white"/>
<path id="Vector_8" d="M65.9852 14.396C65.0798 14.396 64.2012 14.5435 63.3896 14.8118L64.5701 18.3665C65.0127 18.2189 65.4889 18.1384 65.9785 18.1384C68.1314 18.1384 69.9222 19.6676 70.3313 21.6998L73.9999 20.9553C73.2421 17.2196 69.9423 14.396 65.9852 14.396Z" fill="white"/>
</g>
</g>
</g>
</svg>
