<svg width="78" height="41" viewBox="0 0 78 41" fill="none" xmlns="http://www.w3.org/2000/svg">
<g id="Hipercard">
<g id="HIPERCARD">
<path fill-rule="evenodd" clip-rule="evenodd" d="M23.5981 28.2612H22.0763L22.0956 28.1814C22.1062 28.1376 22.1623 27.8625 22.2202 27.5702C22.2781 27.2778 22.3733 26.7834 22.4318 26.4716C22.4904 26.1597 22.5879 25.6335 22.6486 25.3022C22.7093 24.9708 22.7972 24.4924 22.8438 24.239C22.8905 23.9856 22.977 23.5152 23.0361 23.1936C23.0951 22.872 23.1908 22.3298 23.2487 21.9887C23.3065 21.6477 23.394 21.1294 23.4431 20.837C23.4921 20.5447 23.5799 20.0184 23.638 19.6676C23.6962 19.3168 23.795 18.7068 23.8576 18.3121L23.9713 17.5945H25.269L25.2676 17.6388C25.2668 17.6631 25.2369 17.8231 25.2012 17.9943L25.1362 18.3056L25.2291 18.2448C25.2802 18.2113 25.3438 18.1623 25.3703 18.1358C25.3968 18.1093 25.5017 18.0344 25.6035 17.9692C25.7052 17.904 25.8953 17.8012 26.026 17.7406L26.2636 17.6305L26.8106 17.4906L27.4808 17.4135L28.0824 17.4577L28.684 17.602L29.2303 17.8847L29.6922 18.3749L29.9312 18.8525L30.0789 19.4904L30.1258 20.1283L30.0852 20.5041C30.0629 20.7108 30.0127 21.0457 29.9737 21.2483L29.9028 21.6166L29.7657 22.0419C29.6903 22.2758 29.5607 22.6266 29.4778 22.8215C29.395 23.0164 29.282 23.2426 29.2268 23.324C29.1716 23.4055 29.1264 23.4811 29.1264 23.492C29.1264 23.5029 29.0512 23.6116 28.9592 23.7336C28.8673 23.8557 28.6882 24.0595 28.5611 24.1867L28.3301 24.4179L28.0824 24.5794C27.9462 24.6683 27.7391 24.7847 27.6224 24.8381L27.41 24.9351L26.6189 25.1401L25.8883 25.185L25.3127 25.1103L24.8297 24.9167L24.4373 24.5208L24.3489 24.3533C24.3003 24.2612 24.2511 24.1859 24.2396 24.1859C24.2281 24.1859 24.1996 24.3254 24.1762 24.4959C24.1528 24.6665 24.0948 25.0532 24.0472 25.3553C23.9997 25.6574 23.9139 26.1996 23.8567 26.5602C23.7994 26.9208 23.7275 27.3785 23.6968 27.5774C23.6661 27.7763 23.6411 27.9863 23.6411 28.0441C23.6411 28.1018 23.6314 28.1743 23.6196 28.2051L23.5981 28.2612ZM25.8175 24.1817L26.4084 24.1462L27.0091 23.9416L27.1388 23.8446C27.2101 23.7913 27.3242 23.6998 27.3923 23.6412C27.4604 23.5826 27.575 23.4525 27.6468 23.352C27.7187 23.2516 27.8439 23.0433 27.9251 22.8892L28.0728 22.6089L28.1934 22.2627C28.2597 22.0723 28.3549 21.7374 28.4048 21.5185L28.4957 21.1205L28.5321 19.7739L28.4727 19.5461C28.4401 19.4208 28.3761 19.2446 28.3306 19.1546L28.2478 18.991L27.9409 18.682L27.5748 18.5132L27.0561 18.4025L26.4191 18.44L25.9237 18.5935L25.7338 18.7014C25.6293 18.7607 25.4526 18.8853 25.341 18.9783L25.1381 19.1474L25.0455 19.6378C24.9945 19.9076 24.9038 20.4073 24.8439 20.7484C24.784 21.0895 24.694 21.5839 24.6438 21.847L24.5526 22.3254L24.5165 22.9363L24.5616 23.1269C24.5864 23.2318 24.6423 23.3974 24.6858 23.4948L24.7649 23.672L25.0389 23.9341L25.4312 24.1135L25.8175 24.1817Z" fill="#333333"/>
<path fill-rule="evenodd" clip-rule="evenodd" d="M33.8509 25.1426L33.4616 25.1382C33.2475 25.1357 32.962 25.1196 32.8273 25.1022C32.6925 25.0849 32.4517 25.0392 32.2922 25.0006L32.0021 24.9303L31.794 24.8355C31.6796 24.7833 31.5063 24.6813 31.409 24.6087C31.3117 24.5362 31.1664 24.4074 31.0862 24.3225C31.0059 24.2376 30.8995 24.0964 30.8496 24.0087C30.7998 23.921 30.7267 23.7615 30.6871 23.6543C30.6476 23.5471 30.591 23.3557 30.5614 23.2291L30.5076 22.9987L30.5066 21.944L30.563 21.5854C30.594 21.3882 30.6571 21.0673 30.7031 20.8724C30.7491 20.6775 30.8276 20.3985 30.8775 20.2523C30.9274 20.1061 31.0017 19.9068 31.0426 19.8093C31.0835 19.7119 31.1734 19.5205 31.2424 19.3841C31.3115 19.2476 31.4325 19.0403 31.5115 18.9234C31.5905 18.8064 31.7351 18.6307 31.8329 18.5329C31.9306 18.4351 32.0823 18.297 32.1699 18.2259C32.2575 18.1548 32.4326 18.0379 32.5592 17.9661C32.6857 17.8943 32.9086 17.7877 33.0546 17.7292L33.32 17.623L34.1694 17.4597L34.8772 17.4135L35.639 17.4865L36.2573 17.6357L36.4343 17.7299C36.5316 17.7817 36.6681 17.8643 36.7376 17.9135C36.8072 17.9626 36.9121 18.0585 36.9709 18.1265C37.0297 18.1944 37.1196 18.3222 37.1705 18.4103L37.2632 18.5706L37.3753 19.0546L37.3731 19.703L37.3215 20.0884C37.2931 20.3004 37.2431 20.5874 37.2104 20.7263L37.151 20.9788L33.2139 20.9534L32.1488 21.0033L32.0273 21.7938L32.0283 22.68L32.1651 23.1589L32.3832 23.5406L32.6628 23.7936L32.8322 23.8775C32.9253 23.9237 33.0971 23.992 33.2139 24.0294L33.4262 24.0973L34.6648 24.0948L35.4441 23.9437L35.8153 23.8212C36.0195 23.7538 36.2461 23.6699 36.3188 23.6347L36.4511 23.5707L36.4892 23.6089L36.4028 24.0303C36.3553 24.262 36.3067 24.5235 36.2948 24.6113L36.2733 24.771L35.8406 24.8664C35.6027 24.9188 35.2328 24.9864 35.0187 25.0166C34.8046 25.0468 34.4543 25.0875 34.2401 25.1071L33.8509 25.1426ZM32.3468 20.1304C32.3468 20.139 33.1484 20.146 34.1282 20.146H35.9095L35.9843 19.455L35.9189 19.0396L35.8695 18.9461C35.8423 18.8946 35.7713 18.7999 35.7117 18.7355L35.6033 18.6186L35.2084 18.4375L34.6648 18.3675L34.3109 18.3902C34.1163 18.4026 33.8933 18.4292 33.8155 18.4493C33.7376 18.4693 33.5704 18.5353 33.4439 18.5959L33.2139 18.706L32.7456 19.1723L32.6391 19.3845C32.5805 19.5012 32.4908 19.7133 32.4397 19.8557C32.3886 19.9982 32.3468 20.1218 32.3468 20.1304Z" fill="#333333"/>
<path d="M45.1051 25.1427L44.7162 25.1384C44.502 25.136 44.2335 25.1204 44.1195 25.1037C44.0055 25.0871 43.7906 25.0396 43.6417 24.9982L43.3712 24.9229L42.9593 24.705L42.57 24.3212L42.3251 23.9379L42.1131 23.4078L42.0463 22.8924L42.0456 22.0065L42.1118 21.3331L42.2031 20.9611C42.2533 20.7564 42.3526 20.4215 42.4236 20.2169L42.5529 19.8448L42.7215 19.5011C42.8142 19.312 42.9582 19.0575 43.0414 18.9354L43.1927 18.7134L43.4638 18.4463C43.6128 18.2994 43.7799 18.1473 43.8349 18.1083C43.89 18.0693 44.016 17.9879 44.1151 17.9274C44.2141 17.8669 44.3978 17.7763 44.5231 17.7261L44.751 17.6348L45.4588 17.4859L46.4143 17.4124L47.0918 17.4514C47.4644 17.4729 47.9006 17.5054 48.0611 17.5237C48.2215 17.5421 48.3598 17.5641 48.3684 17.5726C48.3769 17.5812 48.3602 17.7211 48.3312 17.8837C48.3022 18.0462 48.2582 18.3108 48.2336 18.4716C48.2089 18.6324 48.1842 18.7639 48.1787 18.7639C48.1732 18.7639 48.0845 18.7325 47.9816 18.694L47.7945 18.6242L46.8744 18.4397L46.0958 18.4006L45.8304 18.442C45.6844 18.4648 45.462 18.5152 45.3362 18.554L45.1074 18.6246L44.751 18.8459L44.4145 19.195L44.2775 19.4313C44.2022 19.5613 44.0883 19.7872 44.0245 19.9334C43.9607 20.0795 43.8958 20.247 43.8803 20.3055C43.8648 20.3639 43.819 20.5234 43.7785 20.6598L43.705 20.9079L43.5659 21.8293L43.5652 22.5897L43.6796 23.1759L43.9199 23.614L44.2821 23.9313L44.7508 24.0941L45.5759 24.1223L46.5465 23.934L46.8872 23.8072C47.0747 23.7375 47.2483 23.6644 47.2731 23.6446C47.2979 23.6249 47.324 23.615 47.3311 23.6227C47.3382 23.6303 47.3283 23.7323 47.309 23.8492C47.2897 23.9662 47.2446 24.2116 47.2089 24.3946C47.1731 24.5776 47.1309 24.7384 47.1152 24.752C47.0994 24.7655 46.9644 24.8112 46.8151 24.8534C46.6659 24.8956 46.4191 24.9543 46.2666 24.9839C46.1141 25.0135 45.7904 25.0613 45.5472 25.0902L45.1051 25.1427Z" fill="#333333"/>
<path fill-rule="evenodd" clip-rule="evenodd" d="M50.0594 25.139L49.851 25.106C49.7364 25.0879 49.5335 25.0422 49.4003 25.0044L49.158 24.9358L48.7347 24.6783L48.6155 24.5389C48.55 24.4623 48.4533 24.3202 48.4006 24.2233L48.3048 24.047L48.2015 23.5063V22.8569L48.3096 22.238L48.4274 21.9627C48.4922 21.8114 48.599 21.6078 48.6647 21.5103C48.7304 21.4129 48.88 21.2374 48.997 21.1204L49.2098 20.9077L49.4801 20.7395C49.6287 20.6469 49.7651 20.5712 49.7831 20.5712C49.8011 20.5712 49.8821 20.5392 49.9631 20.5C50.0441 20.4608 50.2979 20.3772 50.5272 20.3143L50.9439 20.1999L53.4906 20.1907L53.6126 19.5967L53.6158 19.0554L53.3858 18.7121L52.975 18.5091L52.3595 18.401L51.404 18.4405L50.8732 18.531C50.5812 18.5808 50.1927 18.6618 50.0098 18.7111C49.8269 18.7604 49.6721 18.7956 49.6658 18.7893C49.6595 18.783 49.6998 18.6033 49.7553 18.3899C49.8108 18.1766 49.8751 17.9103 49.8983 17.7982L49.9404 17.5945L50.5193 17.5923L50.9439 17.5406C51.1775 17.5122 51.634 17.4725 51.9584 17.4524L52.5482 17.4159L53.4639 17.4857L54.129 17.6338L54.5752 17.8603L54.8471 18.1216L55.0475 18.5318L55.0411 19.4195L54.9461 19.9334C54.8938 20.216 54.8054 20.7024 54.7495 21.0142C54.6937 21.3261 54.6074 21.8204 54.5578 22.1128C54.5081 22.4051 54.4258 22.9394 54.3748 23.2999L54.2821 23.9555L54.2424 24.9655H52.9434L52.9441 24.744C52.9445 24.6222 52.9673 24.3633 52.9948 24.1687C53.0223 23.9742 53.0402 23.8103 53.0345 23.8046C53.0288 23.7989 52.9606 23.8783 52.8831 23.9812C52.8055 24.084 52.6639 24.2457 52.5684 24.3404C52.473 24.4352 52.3073 24.5713 52.2002 24.6429C52.0932 24.7145 51.918 24.8145 51.8109 24.8652L51.6163 24.9574L51.0147 25.1116L50.0594 25.139ZM50.6962 24.1491L51.2624 24.1196L51.8363 23.9379L51.9668 23.8493C52.0385 23.8005 52.11 23.7606 52.1257 23.7606C52.1414 23.7606 52.2498 23.6659 52.3665 23.5501L52.5787 23.3395L52.708 23.1223C52.7791 23.0028 52.8372 22.8953 52.8372 22.8834C52.8372 22.8715 52.8842 22.7411 52.9417 22.5936C52.9991 22.4461 53.0867 22.1739 53.1363 21.9887C53.1859 21.8036 53.2477 21.527 53.2736 21.374L53.3208 21.096L53.2088 21.0496H51.4393L50.8731 21.1843L50.4174 21.404L49.9884 21.8307L49.8764 22.0623C49.8147 22.1897 49.7373 22.3869 49.7043 22.5006L49.6443 22.7072L49.6741 23.3885L49.7499 23.5344C49.7916 23.6146 49.8651 23.7271 49.9132 23.7844L50.0007 23.8884L50.1609 23.971C50.249 24.0164 50.4055 24.075 50.5087 24.1013L50.6962 24.1491Z" fill="#333333"/>
<path fill-rule="evenodd" clip-rule="evenodd" d="M62.8347 25.1422L62.4985 25.1379C62.3136 25.1356 62.0635 25.1208 61.9429 25.1051C61.8222 25.0894 61.6232 25.049 61.5005 25.0153C61.3779 24.9817 61.1819 24.9066 61.0652 24.8486L60.8528 24.743L60.5417 24.4878L60.2692 24.1185L60.1945 23.9307C60.1534 23.8274 60.0985 23.6711 60.0724 23.5834L60.025 23.424L59.9449 22.538L60.0516 21.437L60.16 21.013C60.2195 20.7798 60.3105 20.4773 60.362 20.3409C60.4136 20.2045 60.5423 19.9125 60.6481 19.692L60.8405 19.2912L61.0043 19.0565C61.0944 18.9275 61.2644 18.7185 61.3821 18.5922L61.596 18.3625L62.0915 17.9952L62.7638 17.6668L63.4716 17.4876L64.2502 17.415L65.1703 17.4867L65.5065 17.5713C65.6914 17.6178 65.8696 17.6673 65.9025 17.6813L65.9623 17.7067L65.9811 17.5886C65.9915 17.5236 66.0475 17.1834 66.1056 16.8326C66.1637 16.4817 66.2592 15.8917 66.3178 15.5214C66.3763 15.1511 66.4343 14.7484 66.4466 14.6266L66.469 14.4051H67.9838V14.4317C67.9838 14.4463 67.9454 14.6417 67.8983 14.8658C67.8513 15.0899 67.7637 15.5285 67.7038 15.8403C67.6439 16.1522 67.5537 16.6306 67.5033 16.9035C67.4529 17.1763 67.3659 17.6468 67.3099 17.9489C67.2539 18.251 67.1602 18.7613 67.1016 19.0829C67.0431 19.4045 66.9555 19.8988 66.907 20.1814C66.8585 20.464 66.7848 20.8866 66.7432 21.1205C66.7015 21.3544 66.629 21.8009 66.5821 22.1128C66.5351 22.4246 66.4491 23.0864 66.3909 23.5834L66.2851 24.4871V24.9655H64.8967L64.9201 24.7263C64.933 24.5947 64.9575 24.4074 64.9746 24.3099C64.9917 24.2124 65.0137 24.053 65.0236 23.9555L65.0414 23.7783L65.0209 23.8315C65.0096 23.8607 64.9138 24.0003 64.808 24.1416L64.6156 24.3985L64.2503 24.7205L64.0379 24.8294C63.9211 24.8893 63.746 24.9609 63.6486 24.9885C63.5513 25.0161 63.3284 25.0619 63.1532 25.0904L62.8347 25.1422ZM62.8347 24.1467L63.3691 24.1183L63.9318 23.9395L64.1264 23.81C64.2335 23.7387 64.3743 23.6307 64.4394 23.5699C64.5045 23.5091 64.6077 23.3876 64.6688 23.2999C64.7298 23.2122 64.8235 23.0479 64.8771 22.9348C64.9307 22.8217 64.9975 22.6463 65.0255 22.545C65.0536 22.4437 65.1082 22.2412 65.1469 22.0951C65.1856 21.9489 65.2584 21.614 65.3087 21.3509C65.359 21.0877 65.4469 20.6173 65.5042 20.3055C65.5615 19.9936 65.6416 19.5471 65.6822 19.3132C65.7229 19.0793 65.7649 18.8442 65.7757 18.7907L65.7952 18.6934L65.6951 18.6544C65.6401 18.633 65.4438 18.5734 65.2589 18.522L64.9227 18.4286L63.7548 18.429L63.1983 18.6218L63.0399 18.7195C62.9527 18.7731 62.806 18.8899 62.7137 18.979C62.6214 19.068 62.4818 19.2275 62.4034 19.3333C62.325 19.4392 62.211 19.6215 62.15 19.7385C62.0889 19.8554 61.9911 20.0591 61.9326 20.1912C61.874 20.3232 61.8259 20.4508 61.8256 20.4747C61.8253 20.4985 61.7851 20.6457 61.7364 20.8016L61.6477 21.0851L61.5336 21.9001L61.5253 22.8215L61.6235 23.2822L61.8391 23.6957L62.1292 23.9337L62.3016 24.0077C62.3964 24.0484 62.5551 24.0963 62.6543 24.1142L62.8347 24.1467Z" fill="#333333"/>
<path d="M11.8775 24.9655H10.1578V24.9079C10.1578 24.8763 10.1988 24.649 10.2489 24.4029C10.299 24.1569 10.3538 23.8758 10.3706 23.7783C10.3875 23.6809 10.4404 23.4098 10.4884 23.1759C10.5363 22.942 10.6256 22.4875 10.6868 22.1659C10.748 21.8443 10.8358 21.3819 10.8818 21.1382C10.9279 20.8946 11.0145 20.4242 11.0743 20.0928C11.1342 19.7615 11.2313 19.1874 11.2902 18.8171L11.4845 17.5945C11.5325 17.2924 11.6207 16.7422 11.6804 16.3719C11.7401 16.0016 11.8047 15.5949 11.8239 15.4682C11.8432 15.3415 11.8839 15.0984 11.9144 14.9278L11.97 14.6177H13.7043L13.6827 14.6739C13.6709 14.7048 13.6292 14.9121 13.59 15.1346C13.5508 15.3571 13.4945 15.6547 13.4648 15.796C13.4351 15.9373 13.3953 16.1646 13.3763 16.301C13.3573 16.4375 13.3012 16.7644 13.2518 17.0275C13.2023 17.2906 13.1311 17.6574 13.0936 17.8425C13.056 18.0277 13.0019 18.3141 12.9733 18.479C12.9447 18.6439 12.9245 18.7817 12.9285 18.7851C12.9326 18.7885 13.4195 18.8028 14.0107 18.8168L15.0856 18.8424L17.6522 18.7903L17.7112 18.3962C17.7436 18.1794 17.8177 17.715 17.8759 17.3641C17.934 17.0133 18.0202 16.511 18.0673 16.2479C18.1145 15.9847 18.1846 15.5861 18.2231 15.3619C18.2616 15.1378 18.3039 14.8786 18.317 14.7861L18.3407 14.6177H20.0891L20.0295 14.8747C19.9967 15.016 19.9205 15.4027 19.8601 15.734C19.7997 16.0654 19.7101 16.5597 19.6609 16.8326C19.6118 17.1054 19.5232 17.5918 19.4641 17.9134C19.4049 18.235 19.3098 18.7453 19.2527 19.0474C19.1956 19.3495 19.1093 19.8279 19.0608 20.1106C19.0123 20.3932 18.9239 20.9194 18.8643 21.28C18.8047 21.6406 18.7093 22.2067 18.6523 22.538C18.5953 22.8694 18.5163 23.3318 18.4768 23.5657C18.4373 23.7996 18.3883 24.1106 18.368 24.2567C18.3477 24.4029 18.3139 24.6222 18.2929 24.744L18.2547 24.9655H16.5278L16.5275 24.9212C16.5273 24.8968 16.5834 24.5659 16.6522 24.1859C16.7209 23.8058 16.8154 23.2955 16.8621 23.0519C16.9087 22.8082 16.9967 22.3378 17.0575 22.0065C17.1183 21.6751 17.2153 21.1489 17.2729 20.837C17.3306 20.5252 17.3958 20.1779 17.4179 20.0654L17.458 19.8607L17.4066 19.8093H12.7824L12.7626 19.8292C12.7517 19.8401 12.7043 20.0634 12.6573 20.3253C12.6102 20.5873 12.5309 21.0408 12.481 21.3331C12.431 21.6255 12.3411 22.1597 12.2811 22.5203L12.0864 23.6897C12.0394 23.9724 11.9731 24.375 11.9392 24.5845L11.8775 24.9655Z" fill="#333333"/>
<path d="M21.2978 24.9655H19.7754L19.7968 24.8858C19.8086 24.8419 19.8492 24.6545 19.8869 24.4694C19.9247 24.2842 20.0038 23.8855 20.0628 23.5834C20.1218 23.2813 20.2104 22.8189 20.2599 22.5557C20.3093 22.2926 20.3961 21.8302 20.4527 21.5281C20.5093 21.2259 20.5966 20.7236 20.6466 20.4118C20.6967 20.0999 20.7859 19.5498 20.8448 19.1892C20.9038 18.8286 20.9809 18.3263 21.0161 18.0729L21.0802 17.6122L22.6198 17.5931L22.6006 17.6242C22.59 17.6413 22.5247 17.9406 22.4554 18.2894C22.3861 18.6381 22.289 19.1387 22.2396 19.4018C22.1903 19.6649 22.1038 20.1194 22.0474 20.4118C21.9911 20.7041 21.9057 21.1746 21.8577 21.4572C21.8097 21.7398 21.7216 22.266 21.6619 22.6266C21.6023 22.9872 21.5056 23.5801 21.4471 23.9441C21.3886 24.3082 21.3408 24.6617 21.3408 24.7297C21.3408 24.7977 21.3311 24.8786 21.3193 24.9094L21.2978 24.9655Z" fill="#333333"/>
<path d="M39.0956 24.9655L37.5844 24.9655V24.9344C37.5844 24.9173 37.607 24.7937 37.6345 24.6597C37.6621 24.5258 37.7333 24.169 37.7929 23.8669C37.8525 23.5648 37.9486 23.0704 38.0065 22.7683C38.0644 22.4662 38.1522 22.0038 38.2016 21.7407C38.2511 21.4775 38.3388 20.9752 38.3966 20.6244C38.4544 20.2735 38.5421 19.7313 38.5916 19.4195C38.641 19.1076 38.7213 18.6079 38.7699 18.3089C38.8186 18.0099 38.8585 17.7269 38.8585 17.6799V17.5945H40.208L40.1892 17.6565C40.1788 17.6906 40.1371 17.9099 40.0964 18.1437C40.0557 18.3776 40.0086 18.6328 39.9917 18.7107L39.9609 18.8525L40.0116 18.7816C40.0394 18.7426 40.1442 18.5991 40.2444 18.4627C40.3445 18.3262 40.5041 18.1384 40.599 18.0452C40.6939 17.952 40.8576 17.8206 40.9629 17.7532C41.0682 17.6857 41.2389 17.5994 41.3423 17.5614C41.4457 17.5233 41.6339 17.4739 41.7604 17.4515L41.9904 17.4107L42.1673 17.4326C42.2647 17.4446 42.4598 17.4896 42.6009 17.5326C42.742 17.5756 42.8574 17.6208 42.8574 17.6332C42.8574 17.6455 42.8176 17.8513 42.769 18.0906C42.7203 18.3298 42.6805 18.5633 42.6805 18.6093C42.6805 18.6554 42.671 18.693 42.6594 18.693C42.6478 18.693 42.5483 18.6661 42.4382 18.6331L42.2381 18.5733L41.4242 18.569L40.8917 18.8237L40.4598 19.224L40.2985 19.4635C40.2098 19.5952 40.0804 19.8267 40.011 19.9778C39.9416 20.1289 39.8847 20.2744 39.8847 20.3012C39.8847 20.3279 39.861 20.417 39.832 20.4994C39.803 20.5817 39.7171 20.9624 39.6411 21.3455C39.5651 21.7285 39.454 22.3449 39.3943 22.7152C39.3345 23.0855 39.2531 23.5993 39.2133 23.8569C39.1735 24.1145 39.1307 24.4693 39.1183 24.6454L39.0956 24.9655Z" fill="#333333"/>
<path d="M57.0485 24.9655L55.5034 24.9655L55.5687 24.6377C55.6046 24.4574 55.6814 24.0707 55.7394 23.7783C55.7974 23.486 55.892 22.9996 55.9495 22.6975C56.007 22.3954 56.0943 21.9329 56.1434 21.6698C56.1926 21.4067 56.2805 20.9044 56.3388 20.5535C56.3971 20.2027 56.4923 19.6206 56.5503 19.2601C56.6083 18.8995 56.6884 18.3874 56.7283 18.1221C56.7682 17.8567 56.8008 17.6295 56.8008 17.6171V17.5945H58.1102L58.1087 17.6742C58.1079 17.7181 58.0618 17.9852 58.0064 18.2678C57.9509 18.5504 57.9102 18.7867 57.9159 18.7929C57.9216 18.7991 57.9876 18.7114 58.0624 18.598L58.1986 18.3918L58.7053 17.8603L59.0951 17.6249L59.6143 17.442L60.2513 17.4404L60.4282 17.4962C60.5255 17.5269 60.647 17.5684 60.6982 17.5885L60.7912 17.6249L60.7085 18.0261C60.663 18.2468 60.6252 18.4782 60.6243 18.5404L60.6229 18.6535L60.5642 18.6898L60.2159 18.5778L59.3311 18.5717L59.1279 18.6703C59.0161 18.7245 58.8299 18.8402 58.7141 18.9273L58.5035 19.0858L58.1188 19.5978L57.9729 19.9066C57.8927 20.0764 57.8269 20.2357 57.8266 20.2604C57.8263 20.2852 57.8009 20.3772 57.7702 20.4649C57.7395 20.5526 57.6667 20.8477 57.6083 21.1205C57.55 21.3934 57.481 21.7522 57.4549 21.9179C57.4289 22.0835 57.3669 22.4663 57.3171 22.7684C57.2673 23.0705 57.1865 23.5819 57.1376 23.9048L57.0485 24.492V24.9655Z" fill="#333333"/>
<path d="M22.2483 16.3187L21.8185 16.3172L21.5219 16.1823L21.3681 15.8805L21.3993 15.2733L21.5645 14.8835L21.7748 14.6579L22.137 14.4955L22.6691 14.4955L22.9156 14.6483L23.0571 14.8835L23.0514 15.486L22.8922 15.8951L22.5899 16.2022L22.2483 16.3187Z" fill="#333333"/>
<path d="M4 35.8453V35.7749C4 35.7361 4.04664 35.4848 4.10363 35.2164C4.16063 34.9481 4.24925 34.5212 4.30055 34.2678C4.35186 34.0144 4.43958 33.5838 4.49549 33.311C4.5514 33.0381 4.64429 32.5836 4.70191 32.301C4.75954 32.0184 4.84981 31.5719 4.90251 31.3087C4.95522 31.0456 5.04321 30.6151 5.09806 30.3519C5.1529 30.0888 5.2464 29.6343 5.30584 29.342C5.36528 29.0496 5.45563 28.6031 5.50662 28.3497C5.55762 28.0963 5.63865 27.7056 5.68671 27.4815C5.73476 27.2573 5.79602 26.9544 5.82283 26.8082C5.84966 26.662 5.93644 26.2314 6.01569 25.8514C6.09495 25.4713 6.18244 25.0407 6.21012 24.8946C6.23781 24.7484 6.3257 24.3178 6.40542 23.9377C6.48516 23.5577 6.57274 23.1271 6.60006 22.9809C6.62739 22.8347 6.71546 22.4042 6.79579 22.0241C6.87612 21.644 6.96281 21.2214 6.98845 21.085C7.01408 20.9486 7.0843 20.5977 7.14448 20.3054C7.20466 20.013 7.31854 19.4629 7.39754 19.0828C7.47654 18.7027 7.61167 18.0409 7.69782 17.6121C7.78397 17.1833 7.88693 16.673 7.9266 16.4781C7.96628 16.2832 8.03803 15.9324 8.08604 15.6985C8.13406 15.4646 8.22125 15.042 8.2798 14.7594C8.33835 14.4768 8.43361 14.0143 8.49149 13.7317C8.54938 13.4491 8.63858 13.0106 8.68971 12.7572C8.74084 12.5038 8.82811 12.0812 8.88364 11.8181C8.93917 11.555 9.03469 11.0925 9.0959 10.7904C9.15711 10.4883 9.25966 10.0258 9.32377 9.76272C9.38789 9.4996 9.47854 9.18066 9.52521 9.05397C9.57188 8.92728 9.70074 8.65265 9.81156 8.44368L10.013 8.06373L10.1962 7.82352C10.297 7.6914 10.4768 7.48264 10.5959 7.35959C10.715 7.23655 10.916 7.0514 11.0425 6.94815C11.169 6.8449 11.3521 6.70555 11.4494 6.6385C11.5468 6.57144 11.7379 6.45404 11.8741 6.37761C12.0104 6.30118 12.2015 6.2011 12.2988 6.1552C12.3961 6.1093 12.5952 6.02554 12.7412 5.96906C12.8871 5.91257 13.1658 5.8179 13.3605 5.75867C13.5551 5.69943 13.9205 5.61015 14.1724 5.56027C14.4243 5.51038 14.8224 5.44375 15.0571 5.41219L15.4838 5.35483L74 5.33252V5.40295C74 5.44168 73.9531 5.69296 73.8957 5.96134C73.8383 6.22972 73.7424 6.68851 73.6826 6.98087C73.6229 7.27323 73.5356 7.69582 73.4887 7.91997C73.4418 8.14411 73.3531 8.57468 73.2915 8.87678C73.2299 9.17889 73.1351 9.64135 73.0809 9.90447C73.0266 10.1676 72.9389 10.5982 72.8858 10.8613C72.8327 11.1244 72.7444 11.555 72.6895 11.8181C72.6346 12.0812 72.5495 12.4958 72.5004 12.7395C72.4513 12.9831 72.3624 13.4216 72.3029 13.714C72.2433 14.0064 72.1477 14.4688 72.0903 14.7417C72.0329 15.0146 71.9456 15.4372 71.8961 15.6808C71.8467 15.9244 71.7577 16.363 71.6984 16.6553C71.6391 16.9477 71.5437 17.4101 71.4863 17.683C71.429 17.9559 71.3435 18.3705 71.2964 18.6044C71.2493 18.8383 71.1606 19.2768 71.0994 19.5789C71.0382 19.881 70.9489 20.3196 70.901 20.5535C70.8532 20.7873 70.7677 21.202 70.711 21.4748C70.6544 21.7477 70.5576 22.2181 70.4959 22.5202C70.4342 22.8223 70.3459 23.2529 70.2997 23.477C70.2534 23.7012 70.1669 24.1238 70.1074 24.4161C70.0478 24.7085 69.9531 25.171 69.8969 25.4438C69.8407 25.7167 69.7525 26.1473 69.7009 26.4006C69.6494 26.654 69.5597 27.0926 69.5018 27.3752C69.4438 27.6578 69.3491 28.1203 69.2913 28.4029C69.2335 28.6855 69.147 29.1081 69.0989 29.342C69.0509 29.5759 68.9631 30.0064 68.9038 30.2988C68.8445 30.5911 68.748 31.0519 68.6894 31.3226L68.5829 31.8148L68.4559 32.1554C68.3861 32.3427 68.2811 32.5916 68.2226 32.7085C68.1642 32.8255 68.0451 33.0318 67.958 33.167C67.8709 33.3023 67.7495 33.4755 67.6883 33.5521C67.627 33.6287 67.4425 33.8263 67.2784 33.9913L66.9799 34.2913L66.6927 34.4957C66.5348 34.6081 66.3646 34.7224 66.3146 34.7497C66.2646 34.777 66.0743 34.8743 65.8917 34.9659C65.7091 35.0574 65.4511 35.174 65.3184 35.2248C65.1857 35.2757 64.923 35.3623 64.7345 35.4173C64.546 35.4722 64.344 35.5264 64.2856 35.5376C64.2273 35.5488 64.0245 35.5908 63.8352 35.6309C63.6458 35.671 63.2636 35.731 62.9858 35.7642L62.4808 35.8245L4 35.8453ZM23.5981 28.2612L23.6196 28.2051C23.6314 28.1743 23.6411 28.1018 23.6411 28.0441C23.6411 27.9863 23.6661 27.7763 23.6968 27.5774C23.7275 27.3785 23.7994 26.9208 23.8567 26.5602C23.9139 26.1996 23.9997 25.6574 24.0472 25.3553C24.0948 25.0532 24.1528 24.6665 24.1762 24.4959C24.1996 24.3254 24.2281 24.1859 24.2396 24.1859C24.2511 24.1859 24.3003 24.2612 24.3489 24.3533L24.4373 24.5208L24.8297 24.9167L25.3127 25.1103L25.8883 25.185L26.6189 25.1401L27.41 24.9351L27.6224 24.8381C27.7391 24.7847 27.9462 24.6683 28.0824 24.5794L28.3301 24.4179L28.5611 24.1867C28.6882 24.0595 28.8673 23.8557 28.9592 23.7336C29.0512 23.6116 29.1264 23.5029 29.1264 23.492C29.1264 23.4811 29.1716 23.4055 29.2268 23.324C29.282 23.2426 29.395 23.0164 29.4778 22.8215C29.5607 22.6266 29.6903 22.2758 29.7657 22.0419L29.9028 21.6166L29.9737 21.2483C30.0127 21.0457 30.0629 20.7108 30.0852 20.5041L30.1258 20.1283L30.0789 19.4904L29.9312 18.8525L29.6922 18.3749L29.2303 17.8847L28.684 17.602L28.0824 17.4577L27.4808 17.4135L26.8106 17.4906L26.2636 17.6305L26.026 17.7406C25.8953 17.8012 25.7052 17.904 25.6035 17.9692C25.5017 18.0344 25.3968 18.1093 25.3703 18.1358C25.3438 18.1623 25.2802 18.2113 25.2291 18.2448L25.1362 18.3056L25.2012 17.9943C25.2369 17.8231 25.2668 17.6631 25.2676 17.6388L25.269 17.5945H23.9713L23.8576 18.3121C23.795 18.7068 23.6962 19.3168 23.638 19.6676C23.5799 20.0184 23.4921 20.5447 23.4431 20.837C23.394 21.1294 23.3065 21.6477 23.2487 21.9887C23.1908 22.3298 23.0951 22.872 23.0361 23.1936C22.977 23.5152 22.8905 23.9856 22.8438 24.239C22.7972 24.4924 22.7093 24.9708 22.6486 25.3022C22.5879 25.6335 22.4904 26.1597 22.4318 26.4716C22.3733 26.7834 22.2781 27.2778 22.2202 27.5702C22.1623 27.8625 22.1062 28.1376 22.0956 28.1814L22.0763 28.2612H23.5981ZM25.8175 24.1817L25.4312 24.1135L25.0389 23.9341L24.7649 23.672L24.6858 23.4948C24.6423 23.3974 24.5864 23.2318 24.5616 23.1269L24.5165 22.9363L24.5526 22.3254L24.6438 21.847C24.694 21.5839 24.784 21.0895 24.8439 20.7484C24.9038 20.4073 24.9945 19.9076 25.0455 19.6378L25.1381 19.1474L25.341 18.9783C25.4526 18.8853 25.6293 18.7607 25.7338 18.7014L25.9237 18.5935L26.4191 18.44L27.0561 18.4025L27.5748 18.5132L27.9409 18.682L28.2478 18.991L28.3306 19.1546C28.3761 19.2446 28.4401 19.4208 28.4727 19.5461L28.5321 19.7739L28.4957 21.1205L28.4048 21.5185C28.3549 21.7374 28.2597 22.0723 28.1934 22.2627L28.0728 22.6089L27.9251 22.8892C27.8439 23.0433 27.7187 23.2516 27.6468 23.352C27.575 23.4525 27.4604 23.5826 27.3923 23.6412C27.3242 23.6998 27.2101 23.7913 27.1388 23.8446L27.0091 23.9416L26.4084 24.1462L25.8175 24.1817ZM33.4616 25.1382L33.8509 25.1426L34.2401 25.1071C34.4543 25.0875 34.8046 25.0468 35.0187 25.0166C35.2328 24.9864 35.6027 24.9188 35.8406 24.8664L36.2733 24.771L36.2948 24.6113C36.3067 24.5235 36.3553 24.262 36.4028 24.0303L36.4892 23.6089L36.4511 23.5707L36.3188 23.6347C36.2461 23.6699 36.0195 23.7538 35.8153 23.8212L35.4441 23.9437L34.6648 24.0948L33.4262 24.0973L33.2139 24.0294C33.0971 23.992 32.9253 23.9237 32.8322 23.8775L32.6628 23.7936L32.3832 23.5406L32.1651 23.1589L32.0283 22.68L32.0273 21.7938L32.1488 21.0033L33.2139 20.9534L37.151 20.9788L37.2104 20.7263C37.2431 20.5874 37.2931 20.3004 37.3215 20.0884L37.3731 19.703L37.3753 19.0546L37.2632 18.5706L37.1705 18.4103C37.1196 18.3222 37.0297 18.1944 36.9709 18.1265C36.9121 18.0585 36.8072 17.9626 36.7376 17.9135C36.6681 17.8643 36.5316 17.7817 36.4343 17.7299L36.2573 17.6357L35.639 17.4865L34.8772 17.4135L34.1694 17.4597L33.32 17.623L33.0546 17.7292C32.9086 17.7877 32.6857 17.8943 32.5592 17.9661C32.4326 18.0379 32.2575 18.1548 32.1699 18.2259C32.0823 18.297 31.9306 18.4351 31.8329 18.5329C31.7351 18.6307 31.5905 18.8064 31.5115 18.9234C31.4325 19.0403 31.3115 19.2476 31.2424 19.3841C31.1734 19.5205 31.0835 19.7119 31.0426 19.8093C31.0017 19.9068 30.9274 20.1061 30.8775 20.2523C30.8276 20.3985 30.7491 20.6775 30.7031 20.8724C30.6571 21.0673 30.594 21.3882 30.563 21.5854L30.5066 21.944L30.5076 22.9987L30.5614 23.2291C30.591 23.3557 30.6476 23.5471 30.6871 23.6543C30.7267 23.7615 30.7998 23.921 30.8496 24.0087C30.8995 24.0964 31.0059 24.2376 31.0862 24.3225C31.1664 24.4074 31.3117 24.5362 31.409 24.6087C31.5063 24.6813 31.6796 24.7833 31.794 24.8355L32.0021 24.9303L32.2922 25.0006C32.4517 25.0392 32.6925 25.0849 32.8273 25.1022C32.962 25.1196 33.2475 25.1357 33.4616 25.1382ZM34.1282 20.146C33.1484 20.146 32.3468 20.139 32.3468 20.1304C32.3468 20.1218 32.3886 19.9982 32.4397 19.8557C32.4908 19.7133 32.5805 19.5012 32.6391 19.3845L32.7456 19.1723L33.2139 18.706L33.4439 18.5959C33.5704 18.5353 33.7376 18.4693 33.8155 18.4493C33.8933 18.4292 34.1163 18.4026 34.3109 18.3902L34.6648 18.3675L35.2084 18.4375L35.6033 18.6186L35.7117 18.7355C35.7713 18.7999 35.8423 18.8946 35.8695 18.9461L35.9189 19.0396L35.9843 19.455L35.9095 20.146H34.1282ZM44.7156 25.1383L45.1051 25.1427L45.5472 25.0902C45.7904 25.0613 46.1141 25.0135 46.2666 24.9839C46.4191 24.9543 46.6659 24.8956 46.8151 24.8534C46.9644 24.8112 47.0994 24.7655 47.1152 24.752C47.1309 24.7384 47.1731 24.5776 47.2089 24.3946C47.2446 24.2116 47.2897 23.9662 47.309 23.8492C47.3283 23.7323 47.3382 23.6303 47.3311 23.6227C47.324 23.615 47.2979 23.6249 47.2731 23.6446C47.2483 23.6644 47.0747 23.7375 46.8872 23.8072L46.5465 23.934L45.5759 24.1223L44.7508 24.0941L44.2821 23.9313L43.9199 23.614L43.6796 23.1759L43.5652 22.5897L43.5659 21.8293L43.705 20.9079L43.7785 20.6598C43.819 20.5234 43.8648 20.3639 43.8803 20.3055C43.8958 20.247 43.9607 20.0795 44.0245 19.9334C44.0883 19.7872 44.2022 19.5613 44.2775 19.4313L44.4145 19.195L44.751 18.8459L45.1074 18.6246L45.3362 18.554C45.462 18.5152 45.6844 18.4648 45.8304 18.442L46.0958 18.4006L46.8744 18.4397L47.7945 18.6242L47.9816 18.694C48.0845 18.7325 48.1732 18.7639 48.1787 18.7639C48.1842 18.7639 48.2089 18.6324 48.2336 18.4716C48.2582 18.3108 48.3022 18.0462 48.3312 17.8837C48.3602 17.7211 48.3769 17.5812 48.3684 17.5726C48.3598 17.5641 48.2215 17.5421 48.0611 17.5237C47.9006 17.5054 47.4644 17.4729 47.0918 17.4514L46.4143 17.4124L45.4588 17.4859L44.751 17.6348L44.5231 17.7261C44.3978 17.7763 44.2141 17.8669 44.1151 17.9274C44.016 17.9879 43.89 18.0693 43.8349 18.1083C43.7799 18.1473 43.6128 18.2994 43.4638 18.4463L43.1927 18.7134L43.0414 18.9354C42.9582 19.0575 42.8142 19.312 42.7215 19.5011L42.5529 19.8448L42.4236 20.2169C42.3526 20.4215 42.2533 20.7564 42.2031 20.9611L42.1118 21.3331L42.0456 22.0065L42.0463 22.8924L42.1131 23.4078L42.3251 23.9379L42.57 24.3212L42.9593 24.705L43.3712 24.9229L43.6417 24.9982C43.7906 25.0396 44.0055 25.0871 44.1195 25.1037C44.2335 25.1204 44.502 25.136 44.7162 25.1384L44.7156 25.1383ZM51.0147 25.1116L51.6163 24.9574L51.8109 24.8652C51.918 24.8145 52.0932 24.7145 52.2002 24.6429C52.3073 24.5713 52.473 24.4352 52.5684 24.3404C52.6639 24.2457 52.8055 24.084 52.8831 23.9812C52.9606 23.8783 53.0288 23.7989 53.0345 23.8046C53.0402 23.8103 53.0223 23.9742 52.9948 24.1687C52.9673 24.3633 52.9445 24.6222 52.9441 24.744L52.9434 24.9655H54.2424L54.2821 23.9555L54.3748 23.2999C54.4258 22.9394 54.5081 22.4051 54.5578 22.1128C54.6074 21.8204 54.6937 21.3261 54.7495 21.0142C54.8054 20.7024 54.8938 20.216 54.9461 19.9334L55.0411 19.4195L55.0475 18.5318L54.8471 18.1216L54.5752 17.8603L54.129 17.6338L53.4639 17.4857L52.5482 17.4159L51.9584 17.4524C51.634 17.4725 51.1775 17.5122 50.9439 17.5406L50.5193 17.5923L49.9404 17.5945L49.8983 17.7982C49.8751 17.9103 49.8108 18.1766 49.7553 18.3899C49.6998 18.6033 49.6595 18.783 49.6658 18.7893C49.6721 18.7956 49.8269 18.7604 50.0098 18.7111C50.1927 18.6618 50.5812 18.5808 50.8732 18.531L51.404 18.4405L52.3595 18.401L52.975 18.5091L53.3858 18.7121L53.6158 19.0554L53.6126 19.5967L53.4906 20.1907L50.9439 20.1999L50.5272 20.3143C50.2979 20.3772 50.0441 20.4608 49.9631 20.5C49.8821 20.5392 49.8011 20.5712 49.7831 20.5712C49.7651 20.5712 49.6287 20.6469 49.4801 20.7395L49.2098 20.9077L48.997 21.1204C48.88 21.2374 48.7304 21.4129 48.6647 21.5103C48.599 21.6078 48.4922 21.8114 48.4274 21.9627L48.3096 22.238L48.2015 22.8569V23.5063L48.3048 24.047L48.4006 24.2233C48.4533 24.3202 48.55 24.4623 48.6155 24.5389L48.7347 24.6783L49.158 24.9358L49.4003 25.0044C49.5335 25.0422 49.7364 25.0879 49.851 25.106L50.0594 25.139L51.0147 25.1116ZM50.6962 24.1491L50.5087 24.1013C50.4055 24.075 50.249 24.0164 50.1609 23.971L50.0007 23.8884L49.9132 23.7844C49.8651 23.7271 49.7916 23.6146 49.7499 23.5344L49.6741 23.3885L49.6443 22.7072L49.7043 22.5006C49.7373 22.3869 49.8147 22.1897 49.8764 22.0623L49.9884 21.8307L50.4174 21.404L50.8731 21.1843L51.4393 21.0496H53.2088L53.3208 21.096L53.2736 21.374C53.2477 21.527 53.1859 21.8036 53.1363 21.9887C53.0867 22.1739 52.9991 22.4461 52.9417 22.5936C52.8842 22.7411 52.8372 22.8715 52.8372 22.8834C52.8372 22.8953 52.7791 23.0028 52.708 23.1223L52.5787 23.3395L52.3665 23.5501C52.2498 23.6659 52.1414 23.7606 52.1257 23.7606C52.11 23.7606 52.0385 23.8005 51.9668 23.8493L51.8363 23.9379L51.2624 24.1196L50.6962 24.1491ZM62.4985 25.1379L62.8347 25.1422L63.1532 25.0904C63.3284 25.0619 63.5513 25.0161 63.6486 24.9885C63.746 24.9609 63.9211 24.8893 64.0379 24.8294L64.2503 24.7205L64.6156 24.3985L64.808 24.1416C64.9138 24.0003 65.0096 23.8607 65.0209 23.8315L65.0414 23.7783L65.0236 23.9555C65.0137 24.053 64.9917 24.2124 64.9746 24.3099C64.9575 24.4074 64.933 24.5947 64.9201 24.7263L64.8967 24.9655H66.2851V24.4871L66.3909 23.5834C66.4491 23.0864 66.5351 22.4246 66.5821 22.1128C66.629 21.8009 66.7015 21.3544 66.7432 21.1205C66.7848 20.8866 66.8585 20.464 66.907 20.1814C66.9555 19.8988 67.0431 19.4045 67.1016 19.0829C67.1602 18.7613 67.2539 18.251 67.3099 17.9489C67.3659 17.6468 67.4529 17.1763 67.5033 16.9035C67.5537 16.6306 67.6439 16.1522 67.7038 15.8403C67.7637 15.5285 67.8513 15.0899 67.8983 14.8658C67.9454 14.6417 67.9838 14.4463 67.9838 14.4317V14.4051H66.469L66.4466 14.6266C66.4343 14.7484 66.3763 15.1511 66.3178 15.5214C66.2592 15.8917 66.1637 16.4817 66.1056 16.8326C66.0475 17.1834 65.9915 17.5236 65.9811 17.5886L65.9623 17.7067L65.9025 17.6813C65.8696 17.6673 65.6914 17.6178 65.5065 17.5713L65.1703 17.4867L64.2502 17.415L63.4716 17.4876L62.7638 17.6668L62.0915 17.9952L61.596 18.3625L61.3821 18.5922C61.2644 18.7185 61.0944 18.9275 61.0043 19.0565L60.8405 19.2912L60.6481 19.692C60.5423 19.9125 60.4136 20.2045 60.362 20.3409C60.3105 20.4773 60.2195 20.7798 60.16 21.013L60.0516 21.437L59.9449 22.538L60.025 23.424L60.0724 23.5834C60.0985 23.6711 60.1534 23.8274 60.1945 23.9307L60.2692 24.1185L60.5417 24.4878L60.8528 24.743L61.0652 24.8486C61.1819 24.9066 61.3779 24.9817 61.5005 25.0153C61.6232 25.049 61.8222 25.0894 61.9429 25.1051C62.0635 25.1208 62.3136 25.1356 62.4985 25.1379ZM62.8347 24.1467L62.6543 24.1142C62.5551 24.0963 62.3964 24.0484 62.3016 24.0077L62.1292 23.9337L61.8391 23.6957L61.6235 23.2822L61.5253 22.8215L61.5336 21.9001L61.6477 21.0851L61.7364 20.8016C61.7851 20.6457 61.8253 20.4985 61.8256 20.4747C61.8259 20.4508 61.874 20.3232 61.9326 20.1912C61.9911 20.0591 62.0889 19.8554 62.15 19.7385C62.211 19.6215 62.325 19.4392 62.4034 19.3333C62.4818 19.2275 62.6214 19.068 62.7137 18.979C62.806 18.8899 62.9527 18.7731 63.0399 18.7195L63.1983 18.6218L63.7548 18.429L64.9227 18.4286L65.2589 18.522C65.4438 18.5734 65.6401 18.633 65.6951 18.6544L65.7952 18.6934L65.7757 18.7907C65.7649 18.8442 65.7229 19.0793 65.6822 19.3132C65.6416 19.5471 65.5615 19.9936 65.5042 20.3055C65.4469 20.6173 65.359 21.0877 65.3087 21.3509C65.2584 21.614 65.1856 21.9489 65.1469 22.0951C65.1082 22.2412 65.0536 22.4437 65.0255 22.545C64.9975 22.6463 64.9307 22.8217 64.8771 22.9348C64.8235 23.0479 64.7298 23.2122 64.6688 23.2999C64.6077 23.3876 64.5045 23.5091 64.4394 23.5699C64.3743 23.6307 64.2335 23.7387 64.1264 23.81L63.9318 23.9395L63.3691 24.1183L62.8347 24.1467ZM11.8775 24.9655L11.9392 24.5845C11.9731 24.375 12.0394 23.9724 12.0864 23.6897C12.1335 23.4071 12.2211 22.8809 12.2811 22.5203C12.3411 22.1597 12.431 21.6255 12.481 21.3331C12.5309 21.0408 12.6102 20.5873 12.6573 20.3253C12.7043 20.0634 12.7517 19.8401 12.7626 19.8292L12.7824 19.8093H17.4066L17.458 19.8607L17.4179 20.0654C17.3958 20.1779 17.3306 20.5252 17.2729 20.837C17.2153 21.1489 17.1183 21.6751 17.0575 22.0065C16.9967 22.3378 16.9087 22.8082 16.8621 23.0519C16.8154 23.2955 16.7209 23.8058 16.6522 24.1859C16.5834 24.5659 16.5273 24.8968 16.5275 24.9212L16.5278 24.9655H18.2547L18.2929 24.744C18.3139 24.6222 18.3477 24.4029 18.368 24.2567C18.3883 24.1106 18.4373 23.7996 18.4768 23.5657C18.5163 23.3318 18.5953 22.8694 18.6523 22.538C18.7093 22.2067 18.8047 21.6406 18.8643 21.28C18.9239 20.9194 19.0123 20.3932 19.0608 20.1106C19.1093 19.8279 19.1956 19.3495 19.2527 19.0474C19.3098 18.7453 19.4049 18.235 19.4641 17.9134C19.5232 17.5918 19.6118 17.1054 19.6609 16.8326C19.7101 16.5597 19.7997 16.0654 19.8601 15.734C19.9205 15.4027 19.9967 15.016 20.0295 14.8747L20.0891 14.6177H18.3407L18.317 14.7861C18.3039 14.8786 18.2616 15.1378 18.2231 15.3619C18.1846 15.5861 18.1145 15.9847 18.0673 16.2479C18.0202 16.511 17.934 17.0133 17.8759 17.3641C17.8177 17.715 17.7436 18.1794 17.7112 18.3962L17.6522 18.7903L15.0856 18.8424L14.0107 18.8168C13.4195 18.8028 12.9326 18.7885 12.9285 18.7851C12.9245 18.7817 12.9447 18.6439 12.9733 18.479C13.0019 18.3141 13.056 18.0277 13.0936 17.8425C13.1311 17.6574 13.2023 17.2906 13.2518 17.0275C13.3012 16.7644 13.3573 16.4375 13.3763 16.301C13.3953 16.1646 13.4351 15.9373 13.4648 15.796C13.4945 15.6547 13.5508 15.3571 13.59 15.1346C13.6292 14.9121 13.6709 14.7048 13.6827 14.6739L13.7043 14.6177H11.97L11.9144 14.9278C11.8839 15.0984 11.8432 15.3415 11.8239 15.4682C11.8047 15.5949 11.7401 16.0016 11.6804 16.3719C11.6207 16.7422 11.5325 17.2924 11.4845 17.5945C11.4365 17.8966 11.349 18.4468 11.2902 18.8171C11.2313 19.1874 11.1342 19.7615 11.0743 20.0928C11.0145 20.4242 10.9279 20.8946 10.8818 21.1382C10.8358 21.3819 10.748 21.8443 10.6868 22.1659C10.6256 22.4875 10.5363 22.942 10.4884 23.1759C10.4404 23.4098 10.3875 23.6809 10.3706 23.7783C10.3538 23.8758 10.299 24.1569 10.2489 24.4029C10.1988 24.649 10.1578 24.8763 10.1578 24.9079V24.9655H11.8775ZM21.2978 24.9655L21.3193 24.9094C21.3311 24.8786 21.3408 24.7977 21.3408 24.7297C21.3408 24.6617 21.3886 24.3082 21.4471 23.9441C21.5056 23.5801 21.6023 22.9872 21.6619 22.6266C21.7216 22.266 21.8097 21.7398 21.8577 21.4572C21.9057 21.1746 21.9911 20.7041 22.0474 20.4118C22.1038 20.1194 22.1903 19.6649 22.2396 19.4018C22.289 19.1387 22.3861 18.6381 22.4554 18.2894C22.5247 17.9406 22.59 17.6413 22.6006 17.6242L22.6198 17.5931L21.0802 17.6122L21.0161 18.0729C20.9809 18.3263 20.9038 18.8286 20.8448 19.1892C20.7859 19.5498 20.6967 20.0999 20.6466 20.4118C20.5966 20.7236 20.5093 21.2259 20.4527 21.5281C20.3961 21.8302 20.3093 22.2926 20.2599 22.5557C20.2104 22.8189 20.1218 23.2813 20.0628 23.5834C20.0038 23.8855 19.9247 24.2842 19.8869 24.4694C19.8492 24.6545 19.8086 24.8419 19.7968 24.8858L19.7754 24.9655H21.2978ZM39.0956 24.9655L39.1183 24.6454C39.1307 24.4693 39.1735 24.1145 39.2133 23.8569C39.2531 23.5993 39.3345 23.0855 39.3943 22.7152C39.454 22.3449 39.5651 21.7285 39.6411 21.3455C39.7171 20.9624 39.803 20.5817 39.832 20.4994C39.861 20.417 39.8847 20.3279 39.8847 20.3012C39.8847 20.2744 39.9416 20.1289 40.011 19.9778C40.0804 19.8267 40.2098 19.5952 40.2985 19.4635L40.4598 19.224L40.8917 18.8237L41.4242 18.569L42.2381 18.5733L42.4382 18.6331C42.5483 18.6661 42.6478 18.693 42.6594 18.693C42.671 18.693 42.6805 18.6554 42.6805 18.6093C42.6805 18.5633 42.7203 18.3298 42.769 18.0906C42.8176 17.8513 42.8574 17.6455 42.8574 17.6332C42.8574 17.6208 42.742 17.5756 42.6009 17.5326C42.4598 17.4896 42.2647 17.4446 42.1673 17.4326L41.9904 17.4107L41.7604 17.4515C41.6339 17.4739 41.4457 17.5233 41.3423 17.5614C41.2389 17.5994 41.0682 17.6857 40.9629 17.7532C40.8576 17.8206 40.6939 17.952 40.599 18.0452C40.5041 18.1384 40.3445 18.3262 40.2444 18.4627C40.1442 18.5991 40.0394 18.7426 40.0116 18.7816L39.9609 18.8525L39.9917 18.7107C40.0086 18.6328 40.0557 18.3776 40.0964 18.1437C40.1371 17.9099 40.1788 17.6906 40.1892 17.6565L40.208 17.5945H38.8585V17.6799C38.8585 17.7269 38.8186 18.0099 38.7699 18.3089C38.7213 18.6079 38.641 19.1076 38.5916 19.4195C38.5421 19.7313 38.4544 20.2735 38.3966 20.6244C38.3388 20.9752 38.2511 21.4775 38.2016 21.7407C38.1522 22.0038 38.0644 22.4662 38.0065 22.7683C37.9486 23.0704 37.8525 23.5648 37.7929 23.8669C37.7333 24.169 37.6621 24.5258 37.6345 24.6597C37.607 24.7937 37.5844 24.9173 37.5844 24.9344V24.9655L39.0956 24.9655ZM57.0485 24.9655V24.492L57.1376 23.9048C57.1865 23.5819 57.2673 23.0705 57.3171 22.7684C57.3669 22.4663 57.4289 22.0835 57.4549 21.9179C57.481 21.7522 57.55 21.3934 57.6083 21.1205C57.6667 20.8477 57.7395 20.5526 57.7702 20.4649C57.8009 20.3772 57.8263 20.2852 57.8266 20.2604C57.8269 20.2357 57.8927 20.0764 57.9729 19.9066L58.1188 19.5978L58.5035 19.0858L58.7141 18.9273C58.8299 18.8402 59.0161 18.7245 59.1279 18.6703L59.3311 18.5717L60.2159 18.5778L60.5642 18.6898L60.6229 18.6535L60.6243 18.5404C60.6252 18.4782 60.663 18.2468 60.7085 18.0261L60.7912 17.6249L60.6982 17.5885C60.647 17.5684 60.5255 17.5269 60.4282 17.4962L60.2513 17.4404L59.6143 17.442L59.0951 17.6249L58.7053 17.8603L58.1986 18.3918L58.0624 18.598C57.9876 18.7114 57.9216 18.7991 57.9159 18.7929C57.9102 18.7867 57.9509 18.5504 58.0064 18.2678C58.0618 17.9852 58.1079 17.7181 58.1087 17.6742L58.1102 17.5945H56.8008V17.6171C56.8008 17.6295 56.7682 17.8567 56.7283 18.1221C56.6884 18.3874 56.6083 18.8995 56.5503 19.2601C56.4923 19.6206 56.3971 20.2027 56.3388 20.5535C56.2805 20.9044 56.1926 21.4067 56.1434 21.6698C56.0943 21.9329 56.007 22.3954 55.9495 22.6975C55.892 22.9996 55.7974 23.486 55.7394 23.7783C55.6814 24.0707 55.6046 24.4574 55.5687 24.6377L55.5034 24.9655L57.0485 24.9655ZM22.2483 16.3187L22.5899 16.2022L22.8922 15.8951L23.0514 15.486L23.0571 14.8835L22.9156 14.6483L22.6691 14.4955L22.137 14.4955L21.7748 14.6579L21.5645 14.8835L21.3993 15.2733L21.3681 15.8805L21.5219 16.1823L21.8185 16.3172L22.2483 16.3187Z" fill="white"/>
</g>
</g>
</svg>
