<svg xmlns="http://www.w3.org/2000/svg" xmlns:xlink="http://www.w3.org/1999/xlink" width="32" height="32" viewBox="0 0 32 32">
  <defs>
    <clipPath id="clip-path">
      <rect id="Rectangle_608" data-name="Rectangle 608" width="32" height="32" transform="translate(24.981)" fill="#333"/>
    </clipPath>
  </defs>
  <g id="Mask_Group_2" data-name="Mask Group 2" transform="translate(-24.981)" clip-path="url(#clip-path)">
    <g id="Camada_1" data-name="Camada 1" transform="translate(24.981 3.636)">
      <g id="Group_344" data-name="Group 344">
        <path id="Path_1125" data-name="Path 1125" d="M7.6,24.722c-.051,0-.1,0-.15,0a3.465,3.465,0,0,1-3.4-3.072c-.012-.091-.026-.184-.041-.284l-.049-.333H.765c-.079,0-.144,0-.2,0A.538.538,0,0,1,0,20.5a.522.522,0,0,1,.553-.52c.587-.006,1.113-.009,1.61-.009.533,0,1.025,0,1.506.009h.019a.632.632,0,0,0,.653-.443,5.061,5.061,0,0,1,4.528-3.262c.078,0,.157-.007.235-.007a3.467,3.467,0,0,1,3.439,3.063c.012.092.026.185.041.287.007.05.015.1.023.16l.027.18h4.434l.114-1.007q.1-.887.2-1.766c.274-2.454.542-4.856.809-7.267q.281-2.533.56-5.066l.232-2.1c.007-.063.015-.126.023-.189.019-.144.037-.293.044-.444a1.026,1.026,0,0,0-.242-.767,1.023,1.023,0,0,0-.741-.3l-.129,0H2.881c-.066,0-.116,0-.161-.006a.529.529,0,0,1-.5-.527.525.525,0,0,1,.5-.516C2.783,0,2.844,0,2.907,0h8.5q3.279,0,6.558,0a2.146,2.146,0,0,1,1.629.632,2.145,2.145,0,0,1,.5,1.672c-.019.248-.049.5-.077.748-.012.1-.024.209-.036.313-.061.561-.123,1.121-.187,1.7l-.093.846h2.815l1.423,0a3.5,3.5,0,0,1,2.693,1.209c.446.5.9,1.006,1.331,1.5.913,1.033,1.858,2.1,2.821,3.122a4.163,4.163,0,0,1,1.154,3.729c-.143.951-.235,1.923-.324,2.863q-.038.4-.077.8a2.18,2.18,0,0,1-.621,1.355,1.874,1.874,0,0,1-1.336.527c-.028,0-.057,0-.085,0l-.136,0a1.447,1.447,0,0,0-1.448.93A5.276,5.276,0,0,1,26.093,24a4.834,4.834,0,0,1-2.632.717c-.063,0-.127,0-.192,0a3.435,3.435,0,0,1-3.33-3.206c0-.057-.012-.114-.02-.174,0-.03-.008-.061-.012-.095l-.022-.175-.176-.009-.113-.007c-.083-.006-.161-.011-.244-.011H16.447c-1.053,0-2.3,0-3.543-.008H12.9a.618.618,0,0,0-.651.465,5.16,5.16,0,0,1-1.862,2.332,4.951,4.951,0,0,1-2.782.9ZM24.842,17.34a4.048,4.048,0,0,0-3.8,3.177,2.649,2.649,0,0,0,.486,2.254,2.537,2.537,0,0,0,2.017.9h0c.1,0,.193,0,.291-.013a4.046,4.046,0,0,0,3.546-3.339,2.6,2.6,0,0,0-.544-2.13,2.555,2.555,0,0,0-1.985-.852h-.014Zm-15.9,0a4.018,4.018,0,0,0-3.829,3.28,2.668,2.668,0,0,0,.544,2.191,2.578,2.578,0,0,0,2.007.859c.061,0,.123,0,.185,0a4.1,4.1,0,0,0,3.631-3.3,2.677,2.677,0,0,0-.555-2.183,2.549,2.549,0,0,0-1.976-.842H8.945Zm10.187,2.635c.2,0,.362,0,.51.007h.035a.531.531,0,0,0,.544-.389A5.062,5.062,0,0,1,22.97,16.7a4.807,4.807,0,0,1,1.933-.449,3.694,3.694,0,0,1,2.3.824,3.465,3.465,0,0,1,1.292,2.7l.012.2h.637c.084,0,.167,0,.249,0a1,1,0,0,0,1.1-1.023q.032-.307.062-.614c.1-1.018.211-2.071.336-3.1a2.893,2.893,0,0,0-.622-2.466c-1.188-1.312-2.386-2.656-3.545-3.955l-.871-.976a2.412,2.412,0,0,0-1.824-.865c-.663-.008-1.315-.009-1.865-.009H20a.42.42,0,0,0-.472.416c-.063.631-.135,1.273-.205,1.894-.023.206-.046.412-.069.619l-.272,2.439q-.267,2.4-.533,4.792c-.065.585-.127,1.161-.193,1.771-.03.279-.061.562-.091.849l-.025.233h.234l.393,0,.364,0Z" transform="translate(0 0.001)" fill="#333"/>
        <path id="Path_1126" data-name="Path 1126" d="M10.96,21.036l-.216,0-.221,0H3.981c-.889,0-1.574,0-2.221,0h0a.579.579,0,0,1-.574-.278.514.514,0,0,1,.376-.766,1.545,1.545,0,0,1,.218-.011h9.33c.056,0,.116,0,.172,0a.52.52,0,0,1,.508.51.529.529,0,0,1-.514.534c-.09.006-.188.008-.31.008Z" transform="translate(-0.371 -6.659)" fill="#333"/>
        <path id="Path_1127" data-name="Path 1127" d="M16.825,7.714H12.767a.5.5,0,0,1-.5-.307.442.442,0,0,1,.057-.528.754.754,0,0,1,.431-.2c.849-.01,1.773-.015,2.826-.015.8,0,1.615,0,2.3.006a.522.522,0,0,1,.562.514.5.5,0,0,1-.14.363.615.615,0,0,1-.439.17c-.305,0-.635,0-1.036,0Z" transform="translate(-4.067 -2.218)" fill="#333"/>
        <path id="Path_1128" data-name="Path 1128" d="M6.43,14.373q-1.225,0-2.448,0a.721.721,0,0,1-.517-.179.478.478,0,0,1-.135-.353c0-.324.248-.519.661-.52l.993,0H7.919c.384,0,.7,0,.994,0a.758.758,0,0,1,.494.146.474.474,0,0,1,.15.379c0,.457-.41.525-.652.526l-2.475,0Z" transform="translate(-1.11 -4.438)" fill="#333"/>
        <path id="Path_1129" data-name="Path 1129" d="M24.366,36.562c-.542,0-1.072,0-1.576-.006-.368,0-.58-.191-.582-.517s.224-.528.606-.532c.185,0,.383,0,.624,0h1.913c.234,0,.427,0,.607,0,.377,0,.622.209.625.523a.487.487,0,0,1-.134.355.668.668,0,0,1-.478.172c-.566,0-1.091,0-1.605,0Z" transform="translate(-7.403 -11.834)" fill="#333"/>
        <path id="Path_1130" data-name="Path 1130" d="M1.434,36.559c-.129,0-.236,0-.335-.006a.522.522,0,0,1-.026-1.043c.316-.008.632-.012.939-.012s.643,0,.956.014a.513.513,0,0,1,.5.514.52.52,0,0,1-.517.525c-.108,0-.222.007-.363.007l-.3,0-.3,0h-.21v0H1.71l-.277,0Z" transform="translate(-0.19 -11.832)" fill="#333"/>
        <path id="Path_1131" data-name="Path 1131" d="M6.815,7.721c-.273,0-.543-.007-.8-.02a.521.521,0,0,1,.043-1.036l.051,0h.516l.21,0,.239,0,.233,0c.107,0,.2,0,.277.007A.52.52,0,0,1,7.618,7.7C7.345,7.715,7.075,7.721,6.815,7.721Z" transform="translate(-1.855 -2.22)" fill="#333"/>
        <path id="Path_1132" data-name="Path 1132" d="M16.818,14.38c-.261,0-.532-.006-.8-.019a.5.5,0,0,1-.462-.533.49.49,0,0,1,.5-.5c.082,0,.17-.007.277-.007l.233,0h.029v0h.21l.249,0,.243,0c.112,0,.2,0,.29.007a.487.487,0,0,1,.483.489.492.492,0,0,1-.448.543c-.259.013-.528.02-.8.02Z" transform="translate(-5.184 -4.439)" fill="#333"/>
        <path id="Path_1133" data-name="Path 1133" d="M33.514,18.81q-.608,0-1.216,0a.692.692,0,0,1-.525-.169.736.736,0,0,1-.126-.569c.07-.813.137-1.638.2-2.438q.055-.68.111-1.36c.014-.172.029-.339.055-.5a.475.475,0,0,1,.472-.446c.393-.01.693-.014.972-.014.347,0,.658.007.951.022a.661.661,0,0,1,.391.2c1.048,1.125,2.1,2.279,3.127,3.395l.882.963a.52.52,0,0,1,.115.606.512.512,0,0,1-.528.315h-4.88Zm.109-4.442a3.866,3.866,0,0,0-.4.027l-.216.022-.269,3.324h4.474l-.31-.35-.134-.152c-.077-.087-.142-.162-.209-.234-.2-.22-.409-.441-.61-.655-.466-.5-.949-1.01-1.385-1.542a1.128,1.128,0,0,0-.944-.44Z" transform="translate(-10.547 -4.437)" fill="#333"/>
      </g>
    </g>
  </g>
</svg>
