<svg width="96" height="104" viewBox="0 0 96 104" fill="none" xmlns="http://www.w3.org/2000/svg">
<g id="Icone-News">
<path id="Path 1115" d="M91.6923 103.047H4.30769C3.29577 102.77 2.36782 102.22 1.61331 101.449C0.858804 100.678 0.303177 99.713 0 98.6466L0 43.8495C0.31716 43.442 0.654459 43.0528 1.01046 42.6837C3.98482 39.8874 6.97108 37.1046 9.96923 34.3354C10.185 34.1524 10.3561 33.9164 10.468 33.6476C10.5799 33.3788 10.6292 33.0851 10.6117 32.7916C10.5895 27.3972 10.5994 22.0002 10.6018 16.6045C10.6018 14.7377 10.9489 14.3622 12.6745 14.3596C18.6068 14.3596 24.5391 14.3753 30.4714 14.3307C31.0446 14.3082 31.5953 14.0865 32.0394 13.6992C35.8958 10.1607 39.7292 6.59117 43.5397 2.99054C44.5301 1.93138 45.7352 1.12877 47.0622 0.644531H48.9366C50.2937 1.14113 51.5254 1.96405 52.5366 3.04962C56.3028 6.60211 60.1022 10.11 63.8769 13.6546C64.1108 13.8914 64.3863 14.0767 64.6874 14.1997C64.9886 14.3227 65.3096 14.381 65.632 14.3714C71.5323 14.3425 77.4351 14.353 83.3342 14.3556C85.0572 14.3556 85.4068 14.7363 85.4068 16.6006C85.4068 21.9949 85.4166 27.3893 85.3945 32.7876C85.3783 33.0807 85.4287 33.3737 85.5414 33.6416C85.6541 33.9095 85.8258 34.1443 86.0418 34.3263C89.0416 37.0919 92.0275 39.8742 94.9994 42.6732C95.3536 43.0447 95.6877 43.4374 96 43.8495V98.644C95.485 99.7008 94.8662 100.696 94.1538 101.614C93.4024 102.214 92.5732 102.696 91.6923 103.043V103.047ZM13.4572 17.4237C13.4375 17.7782 13.4117 18.0079 13.4117 18.2403C13.4117 28.5389 13.4059 38.8375 13.3945 49.1362C13.3787 49.4118 13.4432 49.6859 13.5791 49.921C13.7151 50.156 13.9158 50.3404 14.1538 50.449C23.8835 56.4433 33.6066 62.453 43.3231 68.478C43.5106 68.639 43.7447 68.7255 43.9854 68.7226C44.2261 68.7197 44.4584 68.6277 44.6425 68.4622C45.5867 67.6719 46.75 67.238 47.9502 67.2282C49.1503 67.2185 50.3197 67.6335 51.2751 68.4084C51.4813 68.5919 51.7399 68.695 52.0084 68.7007C52.2768 68.7064 52.5391 68.6144 52.752 68.4399C62.384 62.4613 72.0267 56.5046 81.68 50.5698C81.983 50.4217 82.235 50.1763 82.401 49.868C82.5669 49.5597 82.6384 49.2038 82.6055 48.85C82.5785 38.7833 82.5883 28.7192 82.5883 18.6551V17.4263H13.4572V17.4237ZM54.4849 70.8227C54.7311 71.0577 54.9169 71.252 55.12 71.4147C57.5422 73.3533 59.968 75.2884 62.3975 77.22C64.6252 78.9932 66.8529 80.7664 69.0806 82.5396C69.6012 82.9531 70.0012 83.5242 69.696 84.1504C69.4252 84.6812 68.977 85.0838 68.4406 85.2781C68.0714 85.3845 67.5052 85.009 67.1262 84.7097C61.3826 80.1586 55.6509 75.597 49.9311 71.0248C48.4062 69.8092 47.6012 69.817 46.0714 71.0353C34.2888 80.4246 22.5063 89.8157 10.7237 99.2085C10.4443 99.433 10.1735 99.6666 9.78092 99.9962H86.2572C85.0375 99.0155 83.9803 98.1582 82.9169 97.3115C79.84 94.8578 76.7446 92.4317 73.7071 89.9268C73.4956 89.7345 73.3263 89.4948 73.2115 89.2247C73.0966 88.9547 73.0389 88.6611 73.0425 88.3646C73.1273 88.0949 73.2708 87.8505 73.4612 87.6513C73.6516 87.4521 73.8834 87.3038 74.1378 87.2185C74.6517 87.1899 75.1564 87.3722 75.5483 87.7279C80.4935 91.6322 85.4211 95.561 90.3311 99.5144C90.4623 99.6681 90.6244 99.7882 90.8052 99.8657C90.9861 99.9432 91.181 99.9761 91.3755 99.9619C91.5699 99.9478 91.7588 99.887 91.9282 99.784C92.0975 99.6811 92.2428 99.5386 92.3532 99.3673C92.8324 98.6964 93.1112 97.8872 93.1532 97.0449C93.1984 80.6785 93.2098 64.3168 93.1877 47.9599V46.9018L54.4849 70.8253V70.8227ZM2.81231 46.8899V97.0659C2.7989 97.3989 2.81829 97.7324 2.87015 98.0611C2.89564 98.4216 3.01639 98.767 3.2184 99.0573C3.42041 99.3476 3.6954 99.5708 4.01151 99.7012C4.32763 99.8316 4.67191 99.8638 5.00446 99.794C5.33701 99.7242 5.64422 99.5553 5.89046 99.3069L40.7778 71.5014C41.0129 71.315 41.2308 71.1075 41.5348 70.8319C28.6117 62.8447 15.8117 54.9283 2.80985 46.8899H2.81231ZM60.1772 14.2926C60.0884 14.1574 59.9905 14.0293 59.8843 13.9093C56.4792 10.7305 53.0716 7.55434 49.6615 4.38082C49.4356 4.13277 49.1639 3.93753 48.8635 3.80749C48.5631 3.67746 48.2406 3.61548 47.9165 3.62548C47.5925 3.63548 47.2739 3.71724 46.981 3.86558C46.6882 4.01392 46.4275 4.22559 46.2154 4.48716C42.8751 7.59417 39.5401 10.7069 36.2105 13.8252C36.0777 13.9706 35.9543 14.1254 35.8412 14.2887H60.1772V14.2926ZM85.4646 37.7698V48.2015C87.76 46.7797 89.9323 45.4367 92.1895 44.0411C89.8991 41.9052 87.7465 39.8966 85.4646 37.7724V37.7698ZM10.5292 37.7803L3.81538 44.0424C6.10831 45.4563 8.26831 46.7889 10.5305 48.187L10.5292 37.7803Z" fill="white"/>
<path id="Path 1116" d="M48.1022 30.8521C49.1255 29.3674 50.5136 28.2133 52.1132 27.5174C53.7128 26.8215 55.4617 26.6109 57.1665 26.9088C58.8713 27.2067 60.4657 28.0016 61.7736 29.2056C63.0814 30.4095 64.0517 31.9757 64.5773 33.7311C65.201 35.6308 65.4287 37.6527 65.2447 39.656C65.0606 41.6592 64.4691 43.5955 63.5115 45.3298C61.9733 48.4941 59.7409 51.215 57.0044 53.2606C54.4604 55.1813 51.7121 56.8052 49.0155 58.4804C48.7771 58.6263 48.5134 58.7188 48.2405 58.7525C47.9675 58.7861 47.691 58.7601 47.4278 58.676C41.8512 56.0372 36.8321 52.5727 33.3601 47.0549C32.1768 45.3374 31.3585 43.3656 30.9621 41.2767C30.5657 39.1877 30.6007 37.0317 31.0647 34.9586C31.2358 34.2478 31.4746 33.5577 31.7773 32.8987C31.8364 32.715 31.9325 32.5472 32.0588 32.4072C32.1852 32.2672 32.3387 32.1584 32.5086 32.0884C32.6785 32.0183 32.8607 31.9887 33.0424 32.0017C33.2242 32.0147 33.4011 32.07 33.5607 32.1636C33.7329 32.2252 33.8912 32.3245 34.0255 32.4551C34.1598 32.5856 34.267 32.7446 34.3405 32.9219C34.4139 33.0992 34.4519 33.2908 34.4519 33.4846C34.452 33.6784 34.4143 33.8701 34.341 34.0475C32.4075 39.0808 33.9644 43.3422 36.9724 47.2032C39.9023 50.7527 43.5246 53.5756 47.5853 55.474C47.707 55.5304 47.8379 55.5606 47.9705 55.5629C48.1032 55.5651 48.2349 55.5394 48.3582 55.4871C52.9077 53.3375 56.8838 50.0132 59.9275 45.8143C60.9558 44.4559 61.6992 42.8781 62.1072 41.1873C62.5153 39.4965 62.5787 37.7319 62.293 36.0128C62.1126 34.4534 61.4524 33.0019 60.4159 31.8855C59.3793 30.7692 58.0249 30.0511 56.5648 29.8436C55.1047 29.6362 53.6213 29.9511 52.347 30.7392C51.0726 31.5272 50.0793 32.7438 49.5225 34.1984C49.1988 34.931 48.8653 35.5979 47.9976 35.5953C47.1299 35.5927 46.8013 34.9179 46.4801 34.1879C45.8659 32.6716 44.7837 31.4252 43.4134 30.6557C42.0432 29.8862 40.4674 29.64 38.9478 29.958C38.7668 30.0198 38.5753 30.0382 38.3868 30.0119C38.1984 29.9856 38.0178 29.9153 37.8578 29.806C37.6978 29.6966 37.5624 29.5509 37.4612 29.3793C37.3601 29.2077 37.2957 29.0144 37.2727 28.8132C37.219 28.6099 37.2085 28.3963 37.2418 28.188C37.2751 27.9797 37.3514 27.782 37.4652 27.6091C37.579 27.4361 37.7275 27.2924 37.8998 27.1882C38.0722 27.0841 38.2641 27.0221 38.4616 27.0068C39.9079 26.6732 41.4086 26.7196 42.8344 27.142C44.2602 27.5644 45.5683 28.3502 46.6462 29.4316C47.1176 29.8674 47.5718 30.323 48.1108 30.8468L48.1022 30.8521Z" fill="white"/>
</g>
</svg>
