<svg xmlns="http://www.w3.org/2000/svg" width="24" height="23.276" viewBox="0 0 24 23.276">
  <g id="Icone-Assinatura" transform="translate(0 0.003)">
    <path id="Path_765" data-name="Path 765" d="M17.928,3.227h-.61a.8.8,0,0,0,0,1.6h.61A4.48,4.48,0,0,1,22.4,9.3v7.9a4.474,4.474,0,0,1-4.474,4.474H6.072A4.474,4.474,0,0,1,1.6,17.2V9.3A4.48,4.48,0,0,1,6.072,4.825H12.18L10.313,6.692a.8.8,0,1,0,1.13,1.13L14.666,4.6a.817.817,0,0,0,0-1.143L11.443.232a.8.8,0,1,0-1.13,1.13l1.866,1.866H6.072A6.079,6.079,0,0,0,0,9.3v7.9a6.079,6.079,0,0,0,6.072,6.072H17.928A6.073,6.073,0,0,0,24,17.2V9.3A6.073,6.073,0,0,0,17.928,3.227Z" transform="translate(0 0)" fill="#fff"/>
  </g>
</svg>
