<svg xmlns="http://www.w3.org/2000/svg" width="18.754" height="18.754" viewBox="0 0 18.754 18.754">
  <path id="Caminho_285" data-name="Caminho 285" d="M.877,10.254a9.377,9.377,0,1,1,9.377,9.377A9.377,9.377,0,0,1,.877,10.254Zm9.377-8.032a8.032,8.032,0,1,0,8.032,8.032A8.032,8.032,0,0,0,10.254,2.222ZM11.316,14.5a1.062,1.062,0,1,1-1.062-1.062A1.062,1.062,0,0,1,11.316,14.5ZM8.2,8.485a1.962,1.962,0,0,1,2.053-1.876,1.962,1.962,0,0,1,2.053,1.876c0,.7-.382,1.051-1.041,1.451-.074.045-.158.094-.249.147h0a7.475,7.475,0,0,0-.8.51,1.715,1.715,0,0,0-.743,1.361.779.779,0,0,0,1.557.006h0a.627.627,0,0,1,.142-.137,4.525,4.525,0,0,1,.517-.328h0c.111-.064.237-.137.382-.226a3.155,3.155,0,0,0,1.79-2.782,3.517,3.517,0,0,0-3.61-3.433,3.517,3.517,0,0,0-3.61,3.433.779.779,0,1,0,1.557,0Z" transform="translate(-0.877 -0.877)" fill="#3b3b3b" fill-rule="evenodd"/>
</svg>
