<svg width="21" height="25" viewBox="0 0 21 25" fill="none" xmlns="http://www.w3.org/2000/svg">
<g id="Logo-Tiktok" clip-path="url(#clip0_2222_285)">
<path id="Logo-Tiktok_2" d="M17.8293 5.65972C16.5343 4.81691 15.6005 3.46783 15.3087 1.896C15.246 1.55647 15.211 1.20671 15.211 0.849121H11.079L11.0723 17.3849C11.003 19.2367 9.47652 20.723 7.60581 20.723C7.02404 20.723 6.47664 20.5779 5.99434 20.3245C4.88868 19.7435 4.13207 18.5865 4.13207 17.2549C4.13207 15.3423 5.6905 13.7861 7.60521 13.7861C7.96271 13.7861 8.30575 13.8451 8.63009 13.9463V9.73406C8.29429 9.68831 7.95307 9.66002 7.60521 9.66002C3.41164 9.66002 0 13.0667 0 17.2549C0 19.8242 1.28532 22.098 3.24706 23.4729C4.48234 24.3392 5.9853 24.8491 7.60581 24.8491C11.7994 24.8491 15.211 21.4424 15.211 17.2549V8.86959C16.8315 10.0308 18.8174 10.7153 20.96 10.7153V6.58921C19.8061 6.58921 18.7312 6.24667 17.8293 5.65972Z" fill="white"/>
</g>
<defs>
<clipPath id="clip0_2222_285">
<rect width="20.96" height="24" fill="white" transform="translate(0 0.849121)"/>
</clipPath>
</defs>
</svg>
