<svg width="25" height="25" viewBox="0 0 25 25" fill="none" xmlns="http://www.w3.org/2000/svg">
<g id="Logo-Youtube" clip-path="url(#clip0_2222_287)">
<g id="Logo-Youtube_2">
<path id="Subtract" fill-rule="evenodd" clip-rule="evenodd" d="M22.3366 5.50114C23.3693 5.77796 24.1824 6.59361 24.4584 7.62941C24.96 9.50671 24.96 13.4236 24.96 13.4236C24.96 13.4236 24.96 17.3404 24.4584 19.2179C24.1824 20.2536 23.3693 21.0692 22.3366 21.3461C20.465 21.8491 12.96 21.8491 12.96 21.8491C12.96 21.8491 5.45496 21.8491 3.58331 21.3461C2.55072 21.0692 1.73745 20.2536 1.46147 19.2179C0.959961 17.3404 0.959961 13.4236 0.959961 13.4236C0.959961 13.4236 0.959961 9.50671 1.46147 7.62941C1.73745 6.59361 2.55072 5.77796 3.58331 5.50114C5.45496 4.99806 12.96 4.99806 12.96 4.99806C12.96 4.99806 20.465 4.99806 22.3366 5.50114ZM16.7781 13.4239L10.5054 16.98V9.86754L16.7781 13.4239Z" fill="white"/>
</g>
</g>
<defs>
<clipPath id="clip0_2222_287">
<rect width="24" height="24" fill="white" transform="translate(0.959961 0.849121)"/>
</clipPath>
</defs>
</svg>
