<svg width="24" height="25" viewBox="0 0 24 25" fill="none" xmlns="http://www.w3.org/2000/svg">
<g id="Logo-Instagram" clip-path="url(#clip0_2222_283)">
<path id="Logo-Instagram_2" d="M7.0301 0.933046C5.7533 0.993286 4.88138 1.19705 4.11914 1.49657C3.33026 1.80401 2.66162 2.21657 1.99634 2.88425C1.33106 3.55193 0.921379 4.22105 0.616099 5.01113C0.320659 5.77505 0.120499 6.64769 0.0640995 7.92521C0.00769946 9.20273 -0.00478054 9.61337 0.00145946 12.8721C0.00769946 16.1308 0.0220995 16.5393 0.0840195 17.8194C0.144979 19.096 0.348019 19.9677 0.647539 20.7302C0.955459 21.519 1.36754 22.1874 2.03546 22.853C2.70338 23.5185 3.37202 23.9272 4.16402 24.233C4.92722 24.5279 5.8001 24.729 7.07738 24.785C8.35466 24.8409 8.76578 24.8538 12.0235 24.8476C15.2813 24.8414 15.6915 24.827 16.9714 24.7662C18.2513 24.7055 19.1184 24.501 19.8811 24.203C20.67 23.8943 21.3389 23.483 22.0039 22.8148C22.669 22.1466 23.0784 21.477 23.3835 20.6865C23.6791 19.9233 23.88 19.0504 23.9355 17.7741C23.9914 16.4932 24.0046 16.0842 23.9983 12.826C23.9921 9.56777 23.9775 9.15929 23.9167 7.87961C23.856 6.59993 23.6527 5.73089 23.3535 4.96793C23.0451 4.17905 22.6335 3.51113 21.9658 2.84513C21.2981 2.17913 20.628 1.76993 19.8377 1.46561C19.074 1.17017 18.2016 0.968806 16.9243 0.913606C15.6471 0.858406 15.2359 0.844246 11.977 0.850486C8.71802 0.856726 8.31002 0.870646 7.0301 0.933046ZM7.17026 22.6262C6.00026 22.5753 5.36498 22.3809 4.94162 22.2182C4.38098 22.0022 3.98162 21.741 3.5597 21.3232C3.13778 20.9054 2.87858 20.5046 2.6597 19.9451C2.4953 19.5218 2.2973 18.8872 2.24258 17.7172C2.18306 16.4526 2.17058 16.073 2.16362 12.8692C2.15666 9.66545 2.1689 9.28625 2.22434 8.02121C2.27426 6.85217 2.46986 6.21617 2.63234 5.79305C2.84834 5.23169 3.1085 4.83305 3.5273 4.41137C3.9461 3.98969 4.3457 3.73001 4.90562 3.51113C5.3285 3.34601 5.96306 3.14969 7.13258 3.09401C8.3981 3.03401 8.7773 3.02201 11.9806 3.01505C15.1839 3.00809 15.564 3.02009 16.83 3.07577C17.9991 3.12665 18.6353 3.32033 19.0579 3.48377C19.6188 3.69977 20.0179 3.95921 20.4396 4.37873C20.8613 4.79825 21.1212 5.19641 21.3401 5.75753C21.5055 6.17921 21.7018 6.81353 21.757 7.98377C21.8172 9.24929 21.8309 9.62873 21.8367 12.8318C21.8424 16.0348 21.8311 16.4152 21.7757 17.6798C21.7246 18.8498 21.5307 19.4853 21.3677 19.9091C21.1517 20.4695 20.8913 20.8691 20.4723 21.2906C20.0532 21.712 19.6541 21.9717 19.0939 22.1906C18.6715 22.3554 18.0363 22.5522 16.8677 22.6079C15.6022 22.6674 15.223 22.6799 12.0185 22.6869C8.81402 22.6938 8.43602 22.6809 7.1705 22.6262M16.9529 6.43553C16.9534 6.72035 17.0383 6.99864 17.1969 7.23519C17.3556 7.47174 17.5808 7.65594 17.8442 7.76447C18.1075 7.87301 18.3971 7.90102 18.6764 7.84495C18.9556 7.78888 19.212 7.65126 19.413 7.44949C19.614 7.24772 19.7507 6.99086 19.8058 6.71141C19.8608 6.43195 19.8317 6.14245 19.7222 5.87951C19.6127 5.61658 19.4277 5.39202 19.1906 5.23424C18.9534 5.07647 18.6748 4.99256 18.39 4.99313C18.0082 4.99389 17.6423 5.14627 17.3728 5.41676C17.1033 5.68725 16.9523 6.0537 16.9529 6.43553ZM5.8385 12.861C5.84522 16.2642 8.60906 19.0168 12.0115 19.0103C15.414 19.0038 18.1685 16.2402 18.162 12.837C18.1555 9.43385 15.391 6.68057 11.988 6.68729C8.58506 6.69401 5.83202 9.45833 5.8385 12.861ZM7.99994 12.8567C7.99837 12.0656 8.23144 11.2918 8.66968 10.6331C9.10791 9.9744 9.73162 9.46046 10.4619 9.15626C11.1923 8.85206 11.9964 8.77125 12.7726 8.92406C13.5489 9.07687 14.2624 9.45642 14.8229 10.0147C15.3834 10.573 15.7658 11.285 15.9217 12.0607C16.0776 12.8363 15.9999 13.6407 15.6986 14.3723C15.3973 15.1038 14.8859 15.7295 14.2289 16.1704C13.572 16.6112 12.7991 16.8473 12.0079 16.8489C11.4826 16.85 10.9622 16.7476 10.4765 16.5476C9.99076 16.3475 9.54918 16.0538 9.17699 15.683C8.8048 15.3123 8.50929 14.8719 8.30733 14.387C8.10537 13.902 8.00091 13.382 7.99994 12.8567Z" fill="white"/>
</g>
<defs>
<clipPath id="clip0_2222_283">
<rect width="24" height="24" fill="white" transform="translate(0 0.849121)"/>
</clipPath>
</defs>
</svg>
