<svg width="109" height="24" viewBox="0 0 109 24" fill="none" xmlns="http://www.w3.org/2000/svg">
<g id="Logo-Black-Friday" clip-path="url(#clip0_2418_157)">
<g id="Layer_1">
<g id="Group">
<path id="Vector" d="M105.03 0H0.000241101L0 24H105.03C106.707 24 108.067 22.6405 108.067 20.9635V3.03653C108.067 1.3595 106.707 0 105.03 0Z" fill="url(#paint0_linear_2418_157)"/>
<g id="Group_2">
<g id="Group_3">
<path id="Vector_2" d="M10.884 10.03C12.3624 9.87633 13.1861 9.08493 13.1861 7.74316C13.1861 5.71438 11.6602 4.79962 8.93115 4.79962H4.73693C4.63635 4.79962 4.55664 4.88123 4.55664 4.97992V15.4446C4.55664 15.5433 4.63635 15.6249 4.73693 15.6249H9.41889C12.1328 15.6249 13.6435 14.6494 13.6435 12.6377C13.6435 11.1118 12.6983 10.1819 10.884 10.03ZM7.20791 6.88914H8.84005C9.86108 6.88914 10.5177 7.24024 10.5177 8.04681C10.5177 8.85339 9.83072 9.20639 8.84005 9.20639H7.20791V6.88914ZM9.26706 13.5372H7.20791V11.0359H9.26706C10.2729 11.0359 10.9751 11.4477 10.9751 12.3018C10.9751 13.1558 10.2577 13.5372 9.26706 13.5372Z" fill="white"/>
<path id="Vector_3" d="M18.3098 13.7346H18.0024C17.545 13.7346 17.2869 13.5372 17.2869 13.0021V4.97992C17.2869 4.88123 17.2053 4.79962 17.1047 4.79962H14.8444C14.7438 4.79962 14.6641 4.88123 14.6641 4.97992V13.2924C14.6641 14.9549 15.5181 15.6249 16.9813 15.6249H18.3098C18.4104 15.6249 18.4901 15.5433 18.4901 15.4446V13.9149C18.4901 13.8162 18.4104 13.7346 18.3098 13.7346Z" fill="white"/>
<path id="Vector_4" d="M27.5638 13.9168H27.5467C27.2412 13.9168 27.0742 13.7954 27.0742 13.2924V10.7C27.0742 8.4131 25.7931 7.24023 23.233 7.24023C21.1074 7.24023 19.7277 8.07149 19.3405 9.81559C19.3158 9.92567 19.3974 10.0338 19.5113 10.0376L21.7545 10.1155C21.84 10.1192 21.9159 10.0623 21.9348 9.97881C22.0886 9.36771 22.508 9.03938 23.233 9.03938C24.0092 9.03938 24.4514 9.54231 24.4514 10.5026L21.9064 11.0207C20.1072 11.387 19.1621 12.1177 19.1621 13.5676C19.1621 15.0176 20.3502 15.809 22.0886 15.809C23.567 15.809 24.5121 15.2586 24.9391 14.359C25.1688 15.4579 26.0076 15.7311 26.8161 15.7311C27.0875 15.7311 27.3949 15.6951 27.598 15.6571C27.6834 15.6419 27.746 15.566 27.746 15.4806V14.099C27.746 13.9984 27.6644 13.9168 27.5638 13.9168ZM24.4514 12.3777C24.4514 13.4898 23.7511 14.1009 22.7604 14.1009C22.1493 14.1009 21.8608 13.8105 21.8608 13.3228C21.8608 12.835 22.21 12.5447 22.8515 12.408L24.4514 12.0418V12.3777Z" fill="white"/>
<path id="Vector_5" d="M36.5598 12.3853L34.2217 12.3074C34.1306 12.3037 34.0509 12.3701 34.0376 12.4612C33.8934 13.431 33.3468 13.8713 32.5782 13.8713C31.542 13.8713 30.9783 13.0172 30.9783 11.5236C30.9783 10.03 31.542 9.19121 32.5782 9.19121C33.3297 9.19121 33.8611 9.64289 34.0319 10.533C34.049 10.6203 34.1287 10.6829 34.2179 10.6772L36.558 10.5728C36.6661 10.5671 36.7458 10.4684 36.7288 10.3622C36.4175 8.4093 34.7759 7.24023 32.5782 7.24023C29.9668 7.24023 28.253 8.97485 28.2796 11.5844C28.3043 13.9529 30.2875 15.8374 32.656 15.8071C34.8727 15.7805 36.4536 14.5583 36.7326 12.594C36.7477 12.4877 36.668 12.3891 36.5598 12.3853Z" fill="white"/>
<path id="Vector_6" d="M46.0547 15.4844L42.9252 10.8214C42.9024 10.7873 42.9062 10.7398 42.9347 10.7095L45.9257 7.57615C45.9807 7.51732 45.9409 7.42243 45.8612 7.42243H43.041C42.9916 7.42243 42.9423 7.4433 42.9081 7.48126L40.3897 10.2673C40.3347 10.328 40.2322 10.2901 40.2322 10.2065V4.97992C40.2322 4.88123 40.1525 4.79962 40.0519 4.79962H37.7916C37.691 4.79962 37.6094 4.88123 37.6094 4.97992V15.4446C37.6094 15.5433 37.691 15.6249 37.7916 15.6249H40.0519C40.1525 15.6249 40.2322 15.5433 40.2322 15.4446V13.2469L41.128 12.2961C41.1678 12.2524 41.2399 12.26 41.2703 12.3112L43.2592 15.5395C43.2915 15.5926 43.3503 15.6249 43.4129 15.6249H45.9788C46.0509 15.6249 46.0946 15.5452 46.0547 15.4844Z" fill="white"/>
</g>
<g id="Group_4">
<g id="Group_5">
<path id="Vector_7" d="M58.4528 4.79962H65.7746C65.8752 4.79962 65.9549 4.88123 65.9549 4.97992V6.78286C65.9549 6.88344 65.8733 6.96315 65.7746 6.96315H60.9237V9.25004H65.4994C65.6 9.25004 65.6797 9.33165 65.6797 9.43033V11.2333C65.6797 11.3339 65.5981 11.4136 65.4994 11.4136H60.9237V15.4408C60.9237 15.5414 60.8421 15.6211 60.7434 15.6211H58.4528C58.3522 15.6211 58.2725 15.5395 58.2725 15.4408V4.97992C58.2725 4.87933 58.3541 4.79962 58.4528 4.79962Z" fill="white"/>
<path id="Vector_8" d="M67.3248 7.42054H69.4846C69.5814 7.42054 69.6611 7.49835 69.6649 7.59514L69.7199 9.09822C70.0558 7.92346 70.665 7.42054 71.6709 7.42054H72.2061C72.3066 7.42054 72.3864 7.50214 72.3864 7.60083V9.35823C72.3864 9.45881 72.3047 9.53852 72.2061 9.53852H71.6557C70.3595 9.53852 69.7654 9.93517 69.7654 11.1232V15.4408C69.7654 15.5414 69.6838 15.6211 69.5851 15.6211H67.3248C67.2242 15.6211 67.1445 15.5395 67.1445 15.4408V7.59893C67.1445 7.49835 67.2261 7.41864 67.3248 7.41864V7.42054Z" fill="white"/>
<path id="Vector_9" d="M73.4703 4.55481H75.8066C75.9072 4.55481 75.9869 4.63642 75.9869 4.7351V6.32549C75.9869 6.42607 75.9053 6.50578 75.8066 6.50578H73.4703C73.3698 6.50578 73.29 6.42418 73.29 6.32549V4.7351C73.29 4.63452 73.3716 4.55481 73.4703 4.55481ZM73.5159 7.42054H75.7762C75.8768 7.42054 75.9565 7.50214 75.9565 7.60083V15.4427C75.9565 15.5433 75.8749 15.623 75.7762 15.623H73.5159C73.4153 15.623 73.3356 15.5414 73.3356 15.4427V7.60083C73.3356 7.50025 73.4172 7.42054 73.5159 7.42054Z" fill="white"/>
<path id="Vector_10" d="M77.04 11.5217C77.04 8.89894 78.3666 7.23834 80.3631 7.23834C81.553 7.23834 82.39 7.75645 82.8322 8.59529V4.97992C82.8322 4.87933 82.9138 4.79962 83.0125 4.79962H85.2728C85.3734 4.79962 85.4531 4.88123 85.4531 4.97992V15.4427C85.4531 15.5433 85.3715 15.623 85.2728 15.623H83.0808C82.984 15.623 82.9043 15.5471 82.9005 15.4484L82.8606 14.433C82.4033 15.3022 81.4885 15.8052 80.3612 15.8052C78.302 15.8052 77.0381 14.1427 77.0381 11.5217H77.04ZM82.8341 11.5217C82.8341 9.91998 82.2856 9.17413 81.2797 9.17413C80.3346 9.17413 79.7406 10.0737 79.7406 11.5217C79.7406 12.9698 80.3498 13.8694 81.2797 13.8694C82.2704 13.8694 82.8341 13.1064 82.8341 11.5217Z" fill="white"/>
<path id="Vector_11" d="M86.6143 13.5657C86.6143 12.1177 87.5594 11.3851 89.3585 11.0188L91.9054 10.5007C91.9054 9.54041 91.4632 9.03749 90.6851 9.03749C89.962 9.03749 89.5407 9.36771 89.3889 9.97881C89.368 10.0604 89.2921 10.1174 89.2086 10.1155L86.9654 10.0376C86.8515 10.0339 86.7699 9.92757 86.7945 9.8156C87.1817 8.07149 88.5614 7.23834 90.687 7.23834C93.2491 7.23834 94.5282 8.4131 94.5282 10.7V13.2924C94.5282 13.7954 94.6952 13.9168 95.0008 13.9168H95.0179C95.1184 13.9168 95.1982 13.9984 95.1982 14.0971V15.4787C95.1982 15.566 95.1374 15.6401 95.052 15.6571C94.849 15.6951 94.5415 15.7311 94.2682 15.7311C93.4597 15.7311 92.6209 15.456 92.3932 14.359C91.9661 15.2586 91.021 15.8071 89.5426 15.8071C87.8042 15.8071 86.6162 14.9834 86.6162 13.5657H86.6143ZM91.9035 12.3758V12.0399L90.3017 12.4061C89.6622 12.5428 89.3111 12.8483 89.3111 13.3209C89.3111 13.7935 89.6014 14.099 90.2106 14.099C91.2013 14.099 91.9035 13.4898 91.9035 12.3758Z" fill="white"/>
<path id="Vector_12" d="M98.7718 15.1352H97.9917C97.9158 15.1352 97.8475 15.0878 97.8228 15.0176L95.1051 7.66346C95.0615 7.54579 95.1488 7.42053 95.274 7.42053H97.5363C97.6141 7.42053 97.6843 7.47177 97.709 7.54579L99.343 12.6092C99.3544 12.6453 99.3544 12.6851 99.343 12.7212L98.7737 15.1352H98.7718Z" fill="white"/>
</g>
<path id="Vector_13" d="M4.55469 17.7353C4.55469 17.6347 4.63629 17.555 4.73498 17.555H97.0418C97.5447 17.555 97.744 17.4335 97.8958 17.0368L98.5525 15.1371L100.893 7.54958C100.915 7.47367 100.986 7.42242 101.065 7.42242H103.331C103.456 7.42242 103.544 7.54578 103.502 7.66345L100.902 15.1371L99.9721 17.8453C99.5754 19.0049 98.9207 19.4471 97.6244 19.4471H4.73498C4.6344 19.4471 4.55469 19.3655 4.55469 19.2668V17.7371V17.7353Z" fill="white"/>
</g>
<path id="Vector_14" d="M56.0844 9.79852V10.2958C56.0787 10.3204 56.073 10.3451 56.0711 10.3698C56.0123 11.1631 55.7447 11.8861 55.3158 12.5523C54.8053 13.3418 54.1353 13.97 53.3572 14.4881C52.6284 14.9739 51.8484 15.344 50.9963 15.5622C50.5275 15.6818 49.5691 15.6666 49.5483 15.6438C49.6868 15.5129 49.8291 15.3857 49.9639 15.2491C50.3871 14.8183 50.3567 14.173 49.8975 13.7821C49.7817 13.6834 49.6659 13.5866 49.5502 13.4898C49.0586 13.0761 48.5747 12.6548 48.1609 12.1594C47.7852 11.7096 47.4948 11.2143 47.3771 10.6317C47.3525 10.5102 47.3373 10.3849 47.3164 10.2616C47.3164 10.1079 47.3164 9.95414 47.3164 9.79852C47.3221 9.77385 47.3278 9.74917 47.3316 9.7245C47.362 9.5556 47.379 9.38479 47.4227 9.21968C47.5821 8.62945 47.8896 8.13602 48.4153 7.80389C49.5122 7.10929 50.9735 7.46798 51.6359 8.5877C51.6548 8.62186 51.6757 8.65412 51.7023 8.69777C51.7289 8.65223 51.7497 8.61617 51.7706 8.58011C52.3912 7.54199 53.714 7.14914 54.7939 7.69192C55.4581 8.02784 55.8263 8.59529 55.999 9.30129C56.0388 9.4645 56.0578 9.63151 56.0863 9.79662L56.0844 9.79852Z" fill="white"/>
</g>
</g>
</g>
</g>
<defs>
<linearGradient id="paint0_linear_2418_157" x1="2.03278e-07" y1="12" x2="108.066" y2="12" gradientUnits="userSpaceOnUse">
<stop stop-color="#FF369E"/>
<stop offset="1" stop-color="#FF9000"/>
</linearGradient>
<clipPath id="clip0_2418_157">
<rect width="108.066" height="24" fill="white"/>
</clipPath>
</defs>
</svg>
