<svg width="80" height="21" viewBox="0 0 80 21" fill="none" xmlns="http://www.w3.org/2000/svg">
<g id="Logo-Uappi" clip-path="url(#clip0_2222_539)">
<g id="Group">
<path id="Vector" d="M46.8739 6.01213C46.0341 5.37621 44.8593 5.06067 43.1166 5.06067C39.6069 5.06067 37.9564 6.89563 37.8642 9.04611H41.2623C41.3739 8.07038 41.9661 7.55097 43.1409 7.55097C44.2525 7.55097 44.7234 8.05097 44.7234 8.79854C44.7234 9.5898 43.9516 9.81796 41.7817 10.0898C39.3836 10.4053 37.3448 11.1772 37.3448 13.7354C37.3448 16.0218 38.9953 17.2694 41.3059 17.2694C43.0487 17.2694 44.0681 16.6578 44.7477 15.6869L45.1797 16.9781H45.6457H48.3496V15.1675V11.1723V9.32767C48.3448 7.8665 47.869 6.73543 46.8739 6.01213ZM44.8108 12.8277C44.8108 14.0752 43.8593 14.9102 42.4807 14.9102C41.5729 14.9102 40.8982 14.5461 40.8982 13.6189C40.8982 12.7354 41.4856 12.3714 42.9127 12.0558C43.6603 11.8762 44.3399 11.6917 44.8156 11.4442V12.8277H44.8108ZM32.6506 12.7646C32.6506 13.5704 31.8399 14.2209 30.8399 14.2209C29.8399 14.2209 29.0292 13.5704 29.0292 12.7646V5.37621H25.4613V12.9053C25.4613 15.2937 27.869 17.2306 30.8399 17.2306C33.8108 17.2306 36.2186 15.2937 36.2186 12.9053V5.37621H32.6506V12.7646ZM76.1749 16.9684H79.8642V5.37621H76.1749V16.9684ZM76.1749 0.33252V3.6966H79.8642V0.33252H76.1749ZM57.005 5.0364C55.4224 5.0364 54.2914 5.73543 53.5001 6.77427L53.0341 5.37621H52.5195H49.8933V20.3325H53.5826V15.7694H53.6263C54.3496 16.7451 55.4127 17.3325 56.9079 17.3325C59.9419 17.3325 61.9564 14.9345 61.9564 11.1723C61.9613 7.68689 60.0826 5.0364 57.005 5.0364ZM55.9661 14.4782C54.3836 14.4782 53.4758 13.1869 53.4758 11.3082C53.4758 9.42961 54.2914 8.00242 55.8982 8.00242C57.4807 8.00242 58.2283 9.31796 58.2283 11.3082C58.2283 13.2791 57.369 14.4782 55.9661 14.4782ZM70.1457 5.0364C68.5632 5.0364 67.4321 5.73543 66.6409 6.77427L66.1749 5.37621H65.6603H63.0341V20.3325H66.7234V15.7694H66.7671C67.4904 16.7451 68.5535 17.3325 70.0487 17.3325C73.0826 17.3325 75.0972 14.9345 75.0972 11.1723C75.1021 7.68689 73.2234 5.0364 70.1457 5.0364ZM69.1021 14.4782C67.5195 14.4782 66.6118 13.1869 66.6118 11.3082C66.6118 9.42961 67.4273 8.00242 69.0341 8.00242C70.6166 8.00242 71.3642 9.31796 71.3642 11.3082C71.369 13.2791 70.505 14.4782 69.1021 14.4782ZM14.3739 16.9684H19.9176V11.4248H14.3739V16.9684Z" fill="white"/>
<path id="Vector_2" d="M7.25249 16.9684H12.7962V5.87621H7.25249V16.9684ZM14.3738 0.33252V9.85679H19.9175V0.33252H14.3738ZM0.135986 16.9684H5.67968V11.4248H0.135986V16.9684Z" fill="white"/>
</g>
</g>
<defs>
<clipPath id="clip0_2222_539">
<rect width="79.7282" height="20" fill="white" transform="translate(0.135986 0.33252)"/>
</clipPath>
</defs>
</svg>
