<svg width="52" height="33" viewBox="0 0 52 33" fill="none" xmlns="http://www.w3.org/2000/svg">
<g id="Mastercard" clip-path="url(#clip0_2222_498)">
<g id="Layer 1">
<g id="Group">
<path id="Vector" d="M24.8521 29.6551L24.9083 29.6189C22.3714 31.3295 19.3153 32.3289 16.0236 32.3289C13.7702 32.3289 11.6238 31.8596 9.78357 31.0541L9.68118 31.016C5.92378 29.4196 2.91206 26.4069 1.27482 22.5453L1.31468 22.6459C0.469336 20.7133 0 18.5768 0 16.3316C0 14.0864 0.469336 11.9508 1.27482 10.1179L1.31287 10.0155C2.91206 6.25267 5.93012 3.23823 9.80169 1.60915L9.70112 1.64992C11.6256 0.806385 13.7557 0.33705 15.9928 0.33705H16.0154L16.0136 0.33252H16.0815C19.3533 0.33252 22.3922 1.3319 24.854 3.00628L24.8241 3.03075C20.9788 6.19197 18.5261 10.9859 18.5261 16.3515C18.5261 18.1174 18.7916 19.8208 19.2527 21.3031L19.2826 21.4218C20.2693 24.69 22.2291 27.5386 24.8521 29.6551Z" fill="white"/>
<path id="Vector_2" d="M25.8932 28.9012L25.8569 28.8759C23.3499 26.9469 21.4517 24.2686 20.4668 21.0657L20.4967 21.178C20.0156 19.6577 19.7565 18.0413 19.7565 16.3614C19.7565 14.6816 20.0219 13.0317 20.4813 11.6119L20.5112 11.5014C21.4716 8.41082 23.3626 5.73253 25.8932 3.76548L25.895 3.76367L25.9312 3.78995C28.4265 5.73071 30.3165 8.40901 31.3077 11.6101L31.2769 11.4977C31.7662 13.0317 32.0326 14.6644 32.0326 16.3614C32.0326 18.0585 31.7726 19.6595 31.3213 21.0675L31.2914 21.1762C30.3346 24.2686 28.4365 26.9469 25.8932 28.9012Z" fill="white"/>
<path id="Vector_3" d="M51.7819 16.336C51.7819 18.5803 51.3134 20.7168 50.508 22.5488L50.469 22.6521C48.8725 26.4086 45.8608 29.4212 41.9992 31.0576L42.1016 31.0177C40.1581 31.8631 38.0144 32.3324 35.7592 32.3324C32.4693 32.3324 29.4105 31.3339 26.9297 29.6586L26.9623 29.6323C29.5573 27.5566 31.5171 24.7197 32.5319 21.341L32.4992 21.4616C32.9949 19.8551 33.2621 18.1499 33.2621 16.3795C33.2621 14.6091 32.9903 12.8667 32.5156 11.3663L32.4829 11.2458C31.4908 7.98401 29.5392 5.139 26.9297 3.01249L26.8754 3.04692C29.3942 1.33539 32.4331 0.336914 35.7049 0.336914H35.771V0.34235H35.7909C38.028 0.34235 40.1563 0.811686 41.9829 1.61717L42.0853 1.65522C45.8508 3.24625 48.8707 6.25797 50.508 10.1223L50.4672 10.0217C51.3134 11.9543 51.7819 14.0908 51.7819 16.336Z" fill="white"/>
<path id="Vector_4" d="M50.3113 25.9545V25.4214H50.5337V25.3325H50V25.4214H50.2224V25.9545H50.3113ZM51.3343 25.9545V25.3325H51.1564L50.9785 25.7768L50.8006 25.3325H50.6227V25.9545H50.7561V25.4658L50.934 25.8656H51.0675L51.2454 25.4658V25.9545H51.3343Z" fill="white"/>
</g>
</g>
</g>
<defs>
<clipPath id="clip0_2222_498">
<rect width="51.7819" height="32" fill="white" transform="translate(0 0.33252)"/>
</clipPath>
</defs>
</svg>
