<svg width="24" height="26" viewBox="0 0 24 26" fill="none" xmlns="http://www.w3.org/2000/svg">
<path d="M17.1371 9.84307L6.37903 3.63925" stroke="white" stroke-width="1.5" stroke-linecap="round" stroke-linejoin="round"/>
<path d="M17.1371 14.1463V9.96261" stroke="white" stroke-width="1.5" stroke-linecap="round" stroke-linejoin="round"/>
<path d="M22.5161 17.7323V8.1696C22.5157 7.75036 22.405 7.33861 22.1952 6.97564C21.9854 6.61268 21.6839 6.31127 21.3208 6.10166L12.9534 1.32029C12.59 1.11046 12.1777 1 11.7581 1C11.3384 1 10.9262 1.11046 10.5627 1.32029L2.19534 6.10166C1.83227 6.31127 1.53071 6.61268 1.3209 6.97564C1.1111 7.33861 1.00043 7.75036 1 8.1696V17.7323C1.00043 18.1516 1.1111 18.5633 1.3209 18.9263C1.53071 19.2892 1.83227 19.5906 2.19534 19.8003L10.5627 24.5816C10.9262 24.7915 11.3384 24.9019 11.7581 24.9019C12.1777 24.9019 12.59 24.7915 12.9534 24.5816L21.3208 19.8003C21.6839 19.5906 21.9854 19.2892 22.1952 18.9263C22.405 18.5633 22.5157 18.1516 22.5161 17.7323Z" stroke="white" stroke-width="1.5" stroke-linecap="round" stroke-linejoin="round"/>
<path d="M1.32275 6.92644L11.7581 12.9629L22.1934 6.92644" stroke="white" stroke-width="1.5" stroke-linecap="round" stroke-linejoin="round"/>
<path d="M11.7581 25V12.951" stroke="white" stroke-width="1.5" stroke-linecap="round" stroke-linejoin="round"/>
</svg>
