<svg width="70" height="26" viewBox="0 0 70 26" fill="none" xmlns="http://www.w3.org/2000/svg">
<g id="PIX 1" clip-path="url(#clip0_2222_416)">
<g id="svg2">
<g id="g10">
<g id="g964">
<g id="g966">
<g id="g972">
<path id="Vector" d="M28.8448 23.8732C28.6585 23.8732 28.5032 23.7179 28.5032 23.5316V9.2769C28.5032 6.46944 30.7889 4.18994 33.5901 4.18994L37.7951 4.20236C40.5901 4.20236 42.8634 6.48187 42.8634 9.28311V12.3204C42.8634 15.1278 40.5777 17.4073 37.7765 17.4073H31.8386C31.6522 17.4073 31.497 17.2521 31.497 17.0657C31.497 16.8794 31.6522 16.7241 31.8386 16.7241H37.7765C40.205 16.7241 42.1864 14.7489 42.1864 12.3142V9.2769C42.1864 6.85454 40.2175 4.87938 37.8013 4.87938L33.5963 4.86696C31.1678 4.86696 29.1926 6.84211 29.1926 9.2769V23.5316C29.1926 23.7179 29.0373 23.8732 28.851 23.8732H28.8448Z" fill="white"/>
</g>
<g id="g976">
<path id="Vector_2" d="M47.4907 17.4757C47.3043 17.4757 47.1491 17.3204 47.1491 17.134V6.48187C47.1491 5.59367 46.4286 4.87317 45.5404 4.87317H43.7081C43.5217 4.87317 43.3665 4.71789 43.3665 4.53156C43.3665 4.34522 43.5217 4.18994 43.7081 4.18994H45.5404C46.8012 4.18994 47.8323 5.21479 47.8323 6.48187V17.134C47.8323 17.3204 47.677 17.4757 47.4907 17.4757Z" fill="white"/>
</g>
<g id="g980">
<path id="path982" d="M47.0932 2.88536L46.2671 2.05928C46.0622 1.85431 46.0622 1.52511 46.2671 1.32015L47.0932 0.494059C47.2982 0.28909 47.6398 0.28909 47.8324 0.494059L48.6584 1.32015C48.8634 1.52511 48.8634 1.85431 48.6584 2.05928L47.8324 2.88536C47.6274 3.09033 47.2982 3.09033 47.0932 2.88536Z" fill="white"/>
</g>
<g id="g984">
<path id="Vector_3" d="M60.5031 10.5313C60.0373 10.5313 59.5963 10.3512 59.2733 10.022L55.0373 5.78594C54.4472 5.19588 53.6336 4.86048 52.7951 4.86048H50.9876C50.8013 4.86048 50.646 4.7052 50.646 4.51886C50.646 4.33253 50.8013 4.17725 50.9876 4.17725H52.7951C53.8137 4.17725 54.8075 4.58718 55.5218 5.30147L59.7578 9.53749C59.9566 9.73625 60.2236 9.84805 60.5093 9.84805C60.7951 9.84805 61.0621 9.73625 61.2609 9.53749L65.4783 5.3201C66.1926 4.60582 67.1864 4.19588 68.205 4.19588H69.6771C69.8634 4.19588 70.0187 4.35116 70.0187 4.53749C70.0187 4.72383 69.8634 4.87911 69.6771 4.87911H68.205C67.3665 4.87911 66.5528 5.21451 65.9628 5.80458L61.7454 10.022C61.4162 10.3512 60.9814 10.5313 60.5156 10.5313H60.5031Z" fill="white"/>
</g>
<g id="g988">
<path id="Vector_4" d="M52.7951 17.376H50.9876C50.8013 17.376 50.646 17.2207 50.646 17.0344C50.646 16.8481 50.8013 16.6928 50.9876 16.6928H52.7951C53.6336 16.6928 54.4472 16.3574 55.0373 15.7673L59.2733 11.5313C59.6025 11.2021 60.0373 11.022 60.5031 11.022C60.969 11.022 61.41 11.2021 61.733 11.5313L65.9503 15.7487C66.5404 16.3387 67.3541 16.6741 68.1926 16.6741H69.6646C69.851 16.6741 70.0062 16.8294 70.0062 17.0158C70.0062 17.2021 69.851 17.3574 69.6646 17.3574H68.1926C67.1739 17.3574 66.1802 16.9474 65.4659 16.2332L61.2485 12.0158C61.0497 11.817 60.7826 11.7052 60.4969 11.7052C60.2112 11.7052 59.9441 11.817 59.7454 12.0158L55.5094 16.2518C54.7951 16.9661 53.8013 17.376 52.7826 17.376H52.7951Z" fill="white"/>
</g>
<g id="g992">
<path id="path994" d="M18.0559 19.7364C17.1491 19.7364 16.292 19.3886 15.6522 18.7426L12.1802 15.2705C11.9379 15.0283 11.5156 15.0283 11.2671 15.2705L7.78264 18.755C7.14288 19.3948 6.29195 19.7488 5.37891 19.7488H4.69568L9.09319 24.1463C10.4659 25.519 12.6957 25.519 14.0684 24.1463L18.4783 19.7364H18.0621H18.0559Z" fill="white"/>
</g>
<g id="g996">
<path id="path998" d="M5.37267 7.45046C6.2795 7.45046 7.13664 7.79828 7.7764 8.44425L11.2609 11.9287C11.5093 12.1772 11.9255 12.1772 12.1739 11.9287L15.646 8.45667C16.2857 7.81692 17.1366 7.46288 18.0497 7.46288H18.4658L14.0559 3.05294C12.6832 1.68027 10.4534 1.68027 9.08074 3.05294L4.68323 7.45046H5.36646H5.37267Z" fill="white"/>
</g>
<g id="g1000">
<path id="path1002" d="M22.1243 11.1151L19.4535 8.44434C19.3976 8.46918 19.3354 8.48781 19.2671 8.48781H18.0559C17.4224 8.48781 16.8137 8.73626 16.3665 9.18347L12.8944 12.6555C12.5653 12.9847 12.1429 13.1462 11.7205 13.1462C11.2982 13.1462 10.8696 12.9847 10.5466 12.6555L7.06215 9.17104C6.61494 8.72384 6.00625 8.47539 5.37271 8.47539H3.88202C3.8137 8.47539 3.76401 8.46297 3.70811 8.44434L1.03109 11.1214C-0.341581 12.494 -0.341581 14.7238 1.03109 16.0965L3.70811 18.7735C3.76401 18.7487 3.82612 18.7425 3.88202 18.7425H5.37271C6.00625 18.7425 6.61494 18.494 7.06215 18.0468L10.5466 14.5623C11.1802 13.9288 12.2795 13.9288 12.9007 14.5623L16.3727 18.0344C16.8199 18.4816 17.4286 18.7301 18.0621 18.7301H19.2733C19.3417 18.7301 19.4038 18.7425 19.4597 18.7611L22.1305 16.0903C23.5031 14.7052 23.5031 12.4878 22.1305 11.1027" fill="white"/>
</g>
<g id="g1004">
<path id="path1006" d="M32.4659 22.3201C32.2671 22.3201 32.0435 22.3636 31.8137 22.4195V23.289C31.969 23.3449 32.1491 23.376 32.323 23.376C32.7578 23.376 32.9628 23.2331 32.9628 22.8418C32.9504 22.4816 32.7889 22.3201 32.4597 22.3201M31.6584 23.935V22.2145H31.7765L31.7889 22.289C31.9939 22.2456 32.2671 22.1772 32.4659 22.1772C32.6274 22.1772 32.7827 22.2021 32.9131 22.3077C33.0684 22.4257 33.1119 22.6245 33.1119 22.8418C33.1119 23.0717 33.0373 23.2766 32.8261 23.3946C32.6833 23.4692 32.4907 23.5064 32.323 23.5064C32.1491 23.5064 31.9752 23.4754 31.8013 23.4319V23.935H31.6584Z" fill="white"/>
</g>
<g id="g1008">
<path id="path1010" d="M34.2112 22.3138C33.7764 22.3138 33.5776 22.4567 33.5776 22.8356C33.5776 23.2144 33.7764 23.3697 34.2112 23.3697C34.646 23.3697 34.8447 23.2393 34.8447 22.848C34.8323 22.4877 34.646 22.3138 34.2112 22.3138ZM34.7702 23.3821C34.6273 23.4939 34.4348 23.5126 34.2174 23.5126C33.9876 23.5126 33.795 23.4815 33.6522 23.3821C33.4907 23.2703 33.4224 23.0902 33.4224 22.8604C33.4224 22.6306 33.4907 22.4442 33.6522 22.3262C33.795 22.2269 33.9876 22.1958 34.2174 22.1958C34.4472 22.1958 34.6335 22.2269 34.7702 22.3262C34.9317 22.4442 35 22.6306 35 22.848C35 23.0778 34.9317 23.2641 34.7702 23.3821Z" fill="white"/>
</g>
<g id="g1012">
<path id="path1014" d="M36.8323 23.4754L36.3416 22.4319H36.3292L35.8509 23.4754H35.7205L35.1987 22.2207H35.3602L35.795 23.2766H35.8074L36.2733 22.2207H36.4037L36.882 23.2766H36.8944L37.3167 22.2207H37.472L36.9503 23.4754H36.8323Z" fill="white"/>
</g>
<g id="g1016">
<path id="path1018" d="M38.4224 22.314C38.0186 22.314 37.8758 22.4879 37.8572 22.7488H38.9876C38.9627 22.4631 38.8261 22.314 38.4224 22.314ZM38.41 23.5128C38.1677 23.5128 38.0062 23.4817 37.8882 23.3699C37.7454 23.2395 37.6895 23.0532 37.6895 22.8482C37.6895 22.6432 37.7578 22.432 37.9193 22.314C38.0621 22.2146 38.236 22.1836 38.41 22.1836C38.5714 22.1836 38.7578 22.2084 38.9131 22.3016C39.0994 22.4196 39.1304 22.637 39.1304 22.8792H37.8447C37.8447 23.1401 37.9317 23.3699 38.4224 23.3699C38.6522 23.3699 38.8696 23.3389 39.0745 23.2954V23.4258C38.8696 23.4693 38.6398 23.5128 38.41 23.5128Z" fill="white"/>
</g>
<g id="g1020">
<path id="path1022" d="M39.5653 23.4755V22.2209H39.6833L39.6957 22.2954C39.9566 22.2271 40.087 22.1836 40.3169 22.1836H40.3417V22.3265H40.3106C40.1119 22.3265 39.9939 22.3513 39.7206 22.4258V23.4817H39.5653V23.4693V23.4755Z" fill="white"/>
</g>
<g id="g1024">
<path id="path1026" d="M41.1926 22.314C40.7889 22.314 40.6461 22.4879 40.6274 22.7488H41.7579C41.733 22.4631 41.5964 22.314 41.1926 22.314ZM41.1802 23.5128C40.938 23.5128 40.7765 23.4817 40.6585 23.3699C40.5156 23.2395 40.4597 23.0532 40.4597 22.8482C40.4597 22.6432 40.528 22.432 40.6895 22.314C40.8324 22.2146 41.0063 22.1836 41.1802 22.1836C41.3417 22.1836 41.528 22.2084 41.6833 22.3016C41.8697 22.4196 41.9007 22.637 41.9007 22.8792H40.615C40.615 23.1401 40.702 23.3699 41.1926 23.3699C41.4225 23.3699 41.6398 23.3389 41.8448 23.2954V23.4258C41.6398 23.4693 41.41 23.5128 41.1802 23.5128Z" fill="white"/>
</g>
<g id="g1028">
<path id="path1030" d="M43.5217 22.4007C43.3664 22.3448 43.1863 22.3137 43.0124 22.3137C42.5776 22.3137 42.3727 22.469 42.3727 22.8479C42.3727 23.2081 42.5466 23.3696 42.8758 23.3696C43.0745 23.3696 43.2981 23.3261 43.5279 23.2702V22.4007H43.5217ZM43.5404 23.4814L43.5279 23.4069C43.323 23.4504 43.0497 23.5187 42.8509 23.5187C42.6894 23.5187 42.5341 23.4938 42.4037 23.3883C42.2484 23.2702 42.205 23.0715 42.205 22.8541C42.205 22.6243 42.2795 22.4193 42.4907 22.3013C42.6335 22.2143 42.8261 22.1833 43 22.1833C43.1739 22.1833 43.3478 22.2143 43.5217 22.2578V21.6802H43.6646V23.469H43.5341V23.4938L43.5404 23.4814Z" fill="white"/>
</g>
<g id="g1032">
<path id="path1034" d="M45.8199 22.3199C45.6211 22.3199 45.3975 22.3634 45.1677 22.4193V23.2889C45.3292 23.3448 45.5031 23.3758 45.677 23.3758C46.1118 23.3758 46.3168 23.233 46.3168 22.8417C46.3044 22.4814 46.1429 22.3199 45.8137 22.3199M46.1864 23.4007C46.0435 23.4752 45.8509 23.5125 45.6832 23.5125C45.4969 23.5125 45.3106 23.4814 45.118 23.4131L45.1056 23.469H45.0062V21.6802H45.1491V22.2765C45.3541 22.233 45.6149 22.1646 45.8137 22.1646C45.9752 22.1646 46.1305 22.1895 46.2609 22.2951C46.4162 22.4131 46.4596 22.6119 46.4596 22.8292C46.4721 23.0715 46.3913 23.2765 46.1864 23.3945" fill="white"/>
</g>
<g id="g1036">
<path id="path1038" d="M46.6708 23.9538V23.811C46.7454 23.8234 46.8137 23.8234 46.8572 23.8234C47.0435 23.8234 47.1491 23.7675 47.2485 23.5625L47.2919 23.4632L46.6398 22.2085H46.8137L47.3789 23.2955H47.3913L47.9255 22.2085H48.087L47.3789 23.6246C47.2485 23.8855 47.1056 23.96 46.8572 23.96C46.7888 23.9725 46.7267 23.96 46.6708 23.9476" fill="white"/>
</g>
<g id="g1040">
<path id="path1042" d="M50.1057 22.7552H49.615V23.1899H50.1057C50.4411 23.1899 50.5715 23.1589 50.5715 22.9725C50.5591 22.7738 50.3852 22.7552 50.1057 22.7552ZM50.0063 22.0471H49.6025V22.4943H50.0063C50.3355 22.4943 50.4721 22.4508 50.4721 22.2645C50.4721 22.0657 50.3106 22.0471 50.0063 22.0471ZM50.7702 23.3576C50.5963 23.4757 50.3789 23.4757 49.9752 23.4757H49.2361V21.7676H49.9628C50.2982 21.7676 50.5156 21.7676 50.6895 21.8794C50.8075 21.9539 50.8634 22.0657 50.8634 22.2148C50.8634 22.3887 50.7889 22.5067 50.5901 22.5937V22.6061C50.8075 22.662 50.9504 22.7676 50.9504 23.0098C50.9504 23.1837 50.8821 23.2831 50.764 23.3576" fill="white"/>
</g>
<g id="g1044">
<path id="path1046" d="M52.4411 22.9473C52.2982 22.9349 52.1492 22.9224 51.9815 22.9224C51.7206 22.9224 51.6336 22.9783 51.6336 23.0963C51.6336 23.2081 51.7082 23.2703 51.9069 23.2703C52.0684 23.2703 52.2672 23.2392 52.4287 23.1957L52.4411 22.9473ZM52.5218 23.4814L52.5094 23.4069C52.292 23.4628 52.0436 23.5187 51.8262 23.5187C51.6958 23.5187 51.5405 23.4939 51.4473 23.4317C51.3479 23.3634 51.3044 23.2578 51.3044 23.1274C51.3044 22.9845 51.3728 22.8541 51.5094 22.792C51.6398 22.7237 51.8138 22.7237 51.9753 22.7237C52.1057 22.7237 52.2796 22.7361 52.4349 22.7485V22.7237C52.4349 22.5249 52.3044 22.4628 51.9566 22.4628C51.8138 22.4628 51.6523 22.4752 51.4908 22.4876V22.2392C51.6647 22.2268 51.8697 22.2144 52.0374 22.2144C52.2548 22.2144 52.4846 22.2392 52.6274 22.3324C52.7703 22.4317 52.8013 22.5746 52.8013 22.7672V23.5063L52.528 23.4814H52.5218Z" fill="white"/>
</g>
<g id="g1048">
<path id="path1050" d="M54.4349 23.4755V22.7799C54.4349 22.5501 54.3169 22.4631 54.1057 22.4631C53.9504 22.4631 53.7579 22.5066 53.5964 22.5376V23.4631H53.2485V22.2209H53.5342L53.5467 22.2954C53.7641 22.2395 54.0125 22.1836 54.2237 22.1836C54.379 22.1836 54.5405 22.2084 54.6585 22.314C54.7578 22.401 54.8013 22.5314 54.8013 22.7053V23.4755H54.4411V23.4631L54.4349 23.4755Z" fill="white"/>
</g>
<g id="g1052">
<path id="path1054" d="M55.7764 23.5067C55.6149 23.5067 55.441 23.4819 55.3106 23.3763C55.1553 23.2583 55.1118 23.0595 55.1118 22.8421C55.1118 22.6434 55.1801 22.426 55.3727 22.308C55.528 22.2086 55.7205 22.1899 55.9255 22.1899C56.0683 22.1899 56.2112 22.2024 56.3727 22.2148V22.4881C56.2423 22.4757 56.087 22.4632 55.969 22.4632C55.6336 22.4632 55.4783 22.575 55.4783 22.8545C55.4783 23.134 55.5963 23.2458 55.8696 23.2458C56.0311 23.2458 56.2174 23.2148 56.3913 23.1775V23.4384C56.1863 23.4694 55.969 23.5067 55.7702 23.5067" fill="white"/>
</g>
<g id="g1056">
<path id="path1058" d="M57.4224 22.4445C57.087 22.4445 56.9441 22.5563 56.9441 22.8358C56.9441 23.1153 57.087 23.2395 57.4224 23.2395C57.7578 23.2395 57.9006 23.1401 57.9006 22.8482C57.8882 22.5749 57.7453 22.4445 57.4224 22.4445ZM58.0248 23.3824C57.8696 23.4942 57.6646 23.5128 57.4286 23.5128C57.1925 23.5128 56.9689 23.4817 56.8199 23.3824C56.646 23.2643 56.5776 23.078 56.5776 22.8482C56.5776 22.6184 56.646 22.432 56.8199 22.314C56.9752 22.2146 57.1677 22.1836 57.4286 22.1836C57.6894 22.1836 57.8758 22.2146 58.0248 22.314C58.1988 22.432 58.2547 22.6184 58.2547 22.8482C58.2547 23.078 58.1988 23.2643 58.0248 23.3824Z" fill="white"/>
</g>
<g id="g1060">
<path id="path1062" d="M60.2857 23.5065C60.0807 23.5065 59.8509 23.4755 59.677 23.3326C59.472 23.1587 59.4161 22.8978 59.4161 22.6245C59.4161 22.3761 59.4907 22.0779 59.764 21.8978C59.9689 21.7674 60.2298 21.7363 60.4845 21.7363C60.6708 21.7363 60.8633 21.7488 61.0807 21.7674V22.0717C60.8944 22.0593 60.677 22.0407 60.5031 22.0407C60.0124 22.0407 59.8074 22.227 59.8074 22.6183C59.8074 23.0096 60.0062 23.196 60.3602 23.196C60.59 23.196 60.8509 23.1525 61.1242 23.0966V23.4009C60.8385 23.4568 60.559 23.5127 60.2857 23.5127" fill="white"/>
</g>
<g id="g1064">
<path id="path1066" d="M62.1367 22.4073C61.8448 22.4073 61.733 22.5191 61.7143 22.6993H62.5653C62.5404 22.5005 62.4224 22.4073 62.1429 22.4073M62.0808 23.5191C61.8758 23.5191 61.6895 23.4943 61.5466 23.3763C61.3914 23.2583 61.3417 23.0595 61.3417 22.8545C61.3417 22.6558 61.41 22.4508 61.5839 22.3204C61.7392 22.2086 61.9317 22.1899 62.1367 22.1899C62.3106 22.1899 62.528 22.2148 62.6833 22.3204C62.8883 22.4632 62.9007 22.6806 62.9007 22.9415H61.7019C61.7143 23.1403 61.8137 23.2583 62.1678 23.2583C62.3851 23.2583 62.6336 23.2272 62.8324 23.1899V23.4384C62.5901 23.4694 62.3292 23.5129 62.0808 23.5129" fill="white"/>
</g>
<g id="g1068">
<path id="path1070" d="M64.4659 23.4755V22.7799C64.4659 22.5501 64.3479 22.4631 64.1367 22.4631C63.9814 22.4631 63.7889 22.5066 63.6274 22.5376V23.4631H63.2795V22.2209H63.5653L63.5777 22.2954C63.7951 22.2395 64.0435 22.1836 64.2547 22.1836C64.41 22.1836 64.5715 22.2084 64.6895 22.314C64.7889 22.401 64.8323 22.5314 64.8323 22.7053V23.4755H64.4721V23.4631L64.4659 23.4755Z" fill="white"/>
</g>
<g id="g1072">
<path id="path1074" d="M65.8137 23.5065C65.6398 23.5065 65.4845 23.4631 65.41 23.3326C65.3417 23.2457 65.323 23.1276 65.323 22.9537V22.4879H65.0746V22.227H65.323L65.3541 21.8481H65.6709V22.227H66.1615V22.4879H65.6709V22.8916C65.6709 22.991 65.6833 23.0655 65.7019 23.1339C65.733 23.2208 65.8199 23.2519 65.9317 23.2519C66.0187 23.2519 66.1181 23.2394 66.1802 23.227V23.4755C66.0622 23.4879 65.9193 23.5065 65.8075 23.5065" fill="white"/>
</g>
<g id="g1076">
<path id="path1078" d="M66.4969 23.4755V22.2209H66.7827L66.7951 22.2954C67.0249 22.2271 67.1988 22.1836 67.4162 22.1836H67.4597V22.4755H67.3417C67.1678 22.4755 67.0373 22.5004 66.851 22.5438V23.4693H66.5032L66.4969 23.4755Z" fill="white"/>
</g>
<g id="g1080">
<path id="path1082" d="M68.7392 22.9473C68.5963 22.9349 68.4472 22.9224 68.2795 22.9224C68.0187 22.9224 67.9317 22.9783 67.9317 23.0963C67.9317 23.2081 68.0062 23.2703 68.205 23.2703C68.3665 23.2703 68.5653 23.2392 68.7267 23.1957L68.7392 22.9473ZM68.8137 23.4814L68.8013 23.4069C68.5839 23.4628 68.3354 23.5187 68.1181 23.5187C67.9876 23.5187 67.8323 23.4939 67.7392 23.4317C67.6398 23.3634 67.5963 23.2578 67.5963 23.1274C67.5963 22.9845 67.6646 22.8541 67.8013 22.792C67.9317 22.7237 68.1056 22.7237 68.2671 22.7237C68.3976 22.7237 68.5715 22.7361 68.7267 22.7485V22.7237C68.7267 22.5249 68.5963 22.4628 68.2485 22.4628C68.1056 22.4628 67.9441 22.4752 67.7826 22.4876V22.2392C67.9566 22.2268 68.1615 22.2144 68.3292 22.2144C68.5466 22.2144 68.7764 22.2392 68.9193 22.3324C69.0622 22.4317 69.0932 22.5746 69.0932 22.7672V23.5063L68.8199 23.4814H68.8137Z" fill="white"/>
</g>
<path id="path1084" d="M69.5404 21.6865H69.8882V23.4753H69.5404V21.6865Z" fill="white"/>
</g>
</g>
</g>
</g>
</g>
<defs>
<clipPath id="clip0_2222_416">
<rect width="70" height="24.8447" fill="white" transform="translate(0 0.33252)"/>
</clipPath>
</defs>
</svg>
