<svg width="283" height="67" viewBox="0 0 283 67" fill="none" xmlns="http://www.w3.org/2000/svg">
<path d="M20.3359 16.3643C14.2443 16.3643 11.2874 16.5419 7.88359 17.2586V57.4994C7.88359 58.3936 7.25663 59.2879 6.27173 59.2879H1.61186C0.715901 59.2879 0 58.4846 0 57.4994V14.0387C0 13.0557 0.626956 12.4299 1.61186 11.9817C6.71862 9.74702 12.8992 9.47852 20.3359 9.47852C21.5009 9.47852 22.2168 9.56729 22.2168 10.8189V14.933C22.2168 15.9161 22.0389 16.3643 20.3359 16.3643Z" fill="white"/>
<path d="M59.2202 37.199H29.2065V38.273C29.2065 48.5563 34.0443 53.2962 42.2858 53.2962C47.4815 53.2962 53.4843 52.6704 57.604 52.0446H58.053C58.7668 52.0446 59.4848 52.4019 59.4848 53.2962V56.3363C59.4848 57.4991 59.1269 58.1249 57.6929 58.3934C52.5861 59.3765 48.2864 59.9135 42.2837 59.9135C31.9812 59.9135 21.3186 54.9938 21.3186 37.827V31.567C21.3186 18.8694 28.3973 9.48047 41.2076 9.48047C54.0179 9.48047 60.9166 18.7785 60.9166 31.476V35.2329C60.9166 36.3957 60.2897 37.199 59.2158 37.199H59.2202ZM52.9484 30.7615C52.9484 21.1928 49.0956 16.3641 41.212 16.3641C33.3284 16.3641 29.2087 21.5501 29.2087 30.7615V31.2075H52.9484V30.7615Z" fill="white"/>
<path d="M100.434 59.2858H95.7746C94.7897 59.2858 94.1627 58.4824 94.1627 57.4972V25.5735C94.1627 18.8674 92.4598 16.2734 86.3681 16.2734H80.0074C73.9136 16.2734 72.2128 18.8674 72.2128 25.5735V57.4972C72.2128 58.4803 71.5858 59.2858 70.6009 59.2858H65.9411C64.954 59.2858 64.327 58.4824 64.327 57.4972V25.5735C64.327 11.8019 73.9136 9.47852 80.0053 9.47852H86.3659C92.4576 9.47852 102.042 11.8019 102.042 25.5735V57.4972C102.042 58.4803 101.415 59.2858 100.43 59.2858H100.434Z" fill="white"/>
<path d="M125.343 59.9115C112.173 59.9115 105.456 51.2372 105.456 38.0935V31.2965C105.456 18.1507 112.173 9.47852 125.343 9.47852C138.514 9.47852 145.319 18.1507 145.319 31.2965V38.0935C145.319 51.2372 138.512 59.9115 125.343 59.9115ZM137.438 31.2965C137.438 22.1761 133.765 16.3643 125.343 16.3643C116.922 16.3643 113.34 22.0873 113.34 31.2965V38.0935C113.34 47.214 116.922 53.0257 125.343 53.0257C133.765 53.0257 137.438 47.3027 137.438 38.0935V31.2965Z" fill="white"/>
<path d="M184.746 12.2494L173.278 52.8452C171.666 58.4795 168.172 59.9108 164.59 59.9108C161.008 59.9108 157.511 58.4816 155.899 52.8452L144.432 12.2494C144.345 11.9809 144.345 11.8011 144.345 11.6236C144.345 10.7293 144.883 10.1035 145.777 10.1035H150.706C151.419 10.1035 152.138 10.6405 152.407 11.8011L162.44 50.6106C162.978 52.8452 163.694 53.3844 164.592 53.3844C165.397 53.3844 166.204 52.8474 166.74 50.6106L176.775 11.8011C177.042 10.6384 177.76 10.1035 178.476 10.1035H183.492C184.388 10.1035 184.837 10.6405 184.837 11.5326C184.837 11.7124 184.837 11.9809 184.748 12.2494H184.746Z" fill="white"/>
<path d="M219.868 57.8564C215.122 59.0192 208.85 59.9135 203.385 59.9135C190.037 59.9135 183.856 51.2391 183.856 37.827V31.567C183.856 18.1527 189.948 9.48047 203.385 9.48047C208.761 9.48047 215.122 10.3748 219.868 11.5375C221.482 11.8948 221.749 12.3431 221.749 13.5946V55.7972C221.749 56.96 221.482 57.497 219.868 57.8543V57.8564ZM213.868 16.9899C211.449 16.5417 207.147 16.0956 203.385 16.0956C194.517 16.0956 191.74 22.0871 191.74 31.5648V37.8248C191.74 47.2138 194.515 53.2962 203.385 53.2962C207.147 53.2962 211.36 52.848 213.868 52.4019V16.9899Z" fill="white"/>
<path d="M227.095 64.1948C224.908 62.7982 223.769 60.6133 223.769 58.2553C223.769 55.0246 225.869 51.6185 230.594 49.6957C237.768 46.8136 249.318 46.465 259.119 43.4075L259.295 41.4868C259.295 34.9367 254.57 28.7351 242.32 28.7351C240.306 28.7351 238.12 28.9105 235.67 29.2591C225.958 42.7081 216.771 58.1665 215.545 60.1759C215.369 60.5246 215.107 60.6133 214.933 60.6133C214.495 60.6133 214.232 60.2647 214.232 59.9139V59.7385C216.944 49.2583 222.37 39.4774 228.32 30.4804C227.971 30.3938 227.62 30.1318 227.533 29.781V29.519C227.533 28.733 228.407 28.5576 229.982 28.0336C233.57 22.7934 236.894 18.1639 240.92 12.6618C228.058 23.3174 205.221 25.4135 200.671 37.0284C200.322 37.8144 199.708 38.163 199.096 38.163C198.133 38.163 197.083 37.4636 197.083 36.329L197.259 35.6296C197.784 34.3196 201.283 33.3581 204.871 30.3895C214.584 22.0919 233.134 21.3946 244.595 7.50826C245.994 5.5876 247.396 3.40277 248.795 1.3955C248.971 1.13349 249.144 1.04688 249.32 1.04688C249.758 1.04688 250.108 1.3955 250.108 1.74628L249.932 2.18368C248.181 5.58977 236.106 22.6202 233.308 26.7257L235.846 25.6777C240.484 19.3029 251.858 4.01773 259.471 4.01773C260.434 4.01773 261.395 4.27973 262.271 4.89036C262.972 5.41437 263.497 6.11378 263.76 6.8998C263.935 7.3372 263.935 7.77243 263.935 8.29645C263.935 16.1566 244.949 24.1922 237.423 27.1609C238.736 26.9855 240.135 26.9855 241.447 26.9855C251.861 26.9855 260.696 31.353 260.696 40.9585C260.696 41.5691 260.697 42.1819 260.61 42.8792C263.497 41.9177 266.209 40.6077 268.571 38.7737L268.834 38.687C269.096 38.687 269.272 38.9491 269.272 39.1245C269.272 39.2998 269.185 39.3865 269.096 39.4731C266.821 41.1317 264.371 42.5305 260.521 43.8406C258.334 56.7655 243.897 65.8491 233.57 65.8491C231.121 65.8491 228.845 65.3251 227.095 64.1905V64.1948ZM233.045 29.6965L231.032 30.0452C226.22 37.2947 221.758 44.6309 218.346 52.6643C222.984 44.8908 227.971 37.0306 233.045 29.6944V29.6965ZM258.946 44.3689C249.233 47.3376 237.859 47.6884 230.945 50.4817C226.134 52.4911 224.645 55.5464 224.645 58.0799C224.645 59.3033 224.995 60.3513 225.433 61.1373C226.832 63.582 229.809 64.8054 233.395 64.8054C242.669 64.8054 256.408 56.8586 258.944 44.3689H258.946ZM261.746 8.82263L261.833 8.212C261.833 6.98858 261.133 6.02933 259.647 6.02933C256.583 6.02933 250.283 9.95943 239.347 24.2832C245.122 21.8385 260.523 15.0263 261.746 8.82479V8.82263Z" fill="#FF4289" stroke="#FF4289" stroke-width="0.46" stroke-miterlimit="10"/>
<path d="M264.94 42.9714C264.94 40.9619 266.166 38.3419 268.964 35.3732C271.502 32.7531 273.951 31.7051 275.613 31.7051C277.275 31.7051 278.238 32.5777 278.238 33.8011C278.238 35.8106 275.437 38.7793 267.914 40.2647C267.213 41.4881 266.951 42.6227 266.951 43.4088C266.951 45.0674 268.088 45.9422 269.838 45.9422C272.639 45.9422 277.188 43.5842 281.212 38.4306C281.299 38.344 281.388 38.2552 281.562 38.2552C281.735 38.2552 282 38.4306 282 38.6926L281.913 38.9546C277.364 44.6322 272.726 46.9902 269.4 46.9902C266.775 46.9902 264.938 45.4182 264.938 42.9735L264.94 42.9714ZM276.403 33.8877V33.7124L275.791 33.6257C274.04 33.6257 270.89 35.7218 268.704 38.9525C273.604 37.2051 276.403 34.847 276.403 33.8877Z" fill="#FF4289" stroke="#FF4289" stroke-width="0.46" stroke-miterlimit="10"/>
</svg>
