<svg width="78" height="41" viewBox="0 0 78 41" fill="none" xmlns="http://www.w3.org/2000/svg">
<g id="Visa">
<path id="Visa_2" d="M49.6081 9.33252C44.6443 9.33252 40.1876 11.8929 40.1876 16.5912C40.1876 22.0022 48.0602 22.3717 48.0602 25.064C48.0602 26.199 46.7259 27.2284 44.4842 27.2284C41.2817 27.2284 38.8799 25.8031 38.8799 25.8031L37.8658 30.5542C37.8658 30.5542 40.6146 31.7684 44.2974 31.7684C49.7415 31.7684 54.0114 29.1025 54.0114 24.2986C54.0114 18.5972 46.1121 18.2277 46.1121 15.7202C46.1121 14.8227 47.2063 13.8461 49.448 13.8461C51.9832 13.8461 54.0648 14.8755 54.0648 14.8755L55.0789 10.2827C55.0522 10.2827 52.7838 9.33252 49.6081 9.33252ZM4.13344 9.67566L4 10.3619C4 10.3619 6.08159 10.7315 7.97636 11.4969C10.4049 12.368 10.565 12.8695 10.992 14.4268L15.4487 31.3989H21.4266L30.5803 9.67566H24.6291L18.7312 24.457L16.3294 11.9192C16.1159 10.4939 14.995 9.67566 13.6073 9.67566H4.13344ZM32.9821 9.67566L28.3119 31.3989H33.9962L38.6397 9.67566H32.9821ZM64.6329 9.67566C63.2718 9.67566 62.5513 10.3883 62.0175 11.6553L53.6912 31.3989H59.6424L60.7899 28.0995H68.0488L68.7427 31.3989H74L69.4365 9.67566H64.6329ZM65.4068 15.5618L67.1681 23.7179H62.4445L65.4068 15.5618Z" fill="white"/>
</g>
</svg>
